<?xml version="1.0" encoding="UTF-8"?>
<svg version="1.1" xmlns="http://www.w3.org/2000/svg" width="512" height="512">
<path d="M0 0 C168.96 0 337.92 0 512 0 C512 168.96 512 337.92 512 512 C343.04 512 174.08 512 0 512 C0 343.04 0 174.08 0 0 Z " fill="#FCFCFC" transform="translate(0,0)"/>
<path d="M0 0 C1.44203037 0.09067534 2.8801533 0.24761443 4.3125 0.4375 C7.28888154 0.82615147 9.97302279 1 13 1 C13.66 1 14.32 1 15 1 C14.67 3.64 14.34 6.28 14 9 C15.32 8.67 16.64 8.34 18 8 C18 8.66 18 9.32 18 10 C18.99 10 19.98 10 21 10 C20.67 7.03 20.34 4.06 20 1 C21.62463842 0.94604522 23.24978541 0.90722805 24.875 0.875 C25.77992188 0.85179687 26.68484375 0.82859375 27.6171875 0.8046875 C30 1 30 1 32 3 C32.66 2.34 33.32 1.68 34 1 C36.125 1.375 36.125 1.375 38 2 C38.6875 4.25 38.6875 4.25 39 7 C37.5625 9.1875 37.5625 9.1875 36 11 C36 11.66 36 12.32 36 13 C37.65 12.67 39.3 12.34 41 12 C40 14 40 14 37 16 C37.99 17.485 37.99 17.485 39 19 C39.73453448 22.45231207 40 25.45534282 40 29 C-12.14 29 -64.28 29 -118 29 C-118 28.67 -118 28.34 -118 28 C-114.7 27.34 -111.4 26.68 -108 26 C-108 24.68 -108 23.36 -108 22 C-107.67 21.67 -107.34 21.34 -107 21 C-107.33 20.34 -107.66 19.68 -108 19 C-93.22222222 19 -93.22222222 19 -90 20 C-89 21 -89 21 -88.9375 23.5625 C-88.958125 24.366875 -88.97875 25.17125 -89 26 C-90.65 26 -92.3 26 -94 26 C-94 26.66 -94 27.32 -94 28 C-62.98 28 -31.96 28 0 28 C-0.99 26.02 -0.99 26.02 -2 24 C-1.34 24 -0.68 24 0 24 C-0.99 22.515 -0.99 22.515 -2 21 C-1.8125 18.9375 -1.8125 18.9375 -1 17 C-0.01 16.34 0.98 15.68 2 15 C-26.71 14.67 -55.42 14.34 -85 14 C-85 13.34 -85 12.68 -85 12 C-43.42 11.505 -43.42 11.505 -1 11 C-1.495 9.02 -1.495 9.02 -2 7 C-2 4.47717345 -1.84805104 1.84805104 0 0 Z " fill="#EFEFF0" transform="translate(294,178)"/>
<path d="M0 0 C3.3 0 6.6 0 10 0 C10 0.33 10 0.66 10 1 C7.03 1 4.06 1 1 1 C1.33 1.99 1.66 2.98 2 4 C3.12248709 12.70466585 3.14338199 21.44867613 3.12939453 30.21020508 C3.13073038 31.59953862 3.13248774 32.98887181 3.13462734 34.37820435 C3.13910353 38.13813471 3.13732051 41.89803797 3.13421178 45.65796876 C3.13232062 48.84967102 3.13398137 52.04136752 3.13566166 55.2330696 C3.14059309 64.65156243 3.13602385 74.07003513 3.12877274 83.48852539 C3.12474913 88.80997697 3.12291879 94.1314281 3.12130737 99.45288086 C3.10728874 140.30316968 3.05722058 181.15218512 2.5625 222 C2.54771481 223.25587103 2.54771481 223.25587103 2.53263092 224.53711319 C2.26273995 247.36594539 1.71586458 270.18091037 1 293 C0.67 293 0.34 293 0 293 C0 196.31 0 99.62 0 0 Z " fill="#A0A0A0" transform="translate(160,79)"/>
<path d="M0 0 C3.6815625 -0.0309375 3.6815625 -0.0309375 7.4375 -0.0625 C8.21150146 -0.071604 8.98550293 -0.08070801 9.78295898 -0.09008789 C11.52221717 -0.09724913 13.26145304 -0.05024702 15 0 C16 1 16 1 16.11352539 3.59204102 C16.10828857 4.71795654 16.10305176 5.84387207 16.09765625 7.00390625 C16.09443359 8.21884766 16.09121094 9.43378906 16.08789062 10.68554688 C16.07951172 11.96494141 16.07113281 13.24433594 16.0625 14.5625 C16.05798828 15.84576172 16.05347656 17.12902344 16.04882812 18.45117188 C16.03699545 21.63416022 16.02051068 24.81705762 16 28 C9.9291261 28.97567616 6.52094362 28.81511795 0 28 C0 18.76 0 9.52 0 0 Z " fill="#8C8E91" transform="translate(199,401)"/>
<path d="M0 0 C1.65 0.33 3.3 0.66 5 1 C4.01 1.66 3.02 2.32 2 3 C2.99 3.66 3.98 4.32 5 5 C5 5.99 5 6.98 5 8 C4.34 8 3.68 8 3 8 C3 8.66 3 9.32 3 10 C7.455 9.505 7.455 9.505 12 9 C11.34 9 10.68 9 10 9 C9.01 9 8.02 9 7 9 C6.505 4.545 6.505 4.545 6 0 C7.32 0.33 8.64 0.66 10 1 C10.33 0.67 10.66 0.34 11 0 C12.66617115 -0.04063832 14.33388095 -0.042721 16 0 C16.33 2.31 16.66 4.62 17 7 C17.99 7 18.98 7 20 7 C20 7.66 20 8.32 20 9 C19.01 9 18.02 9 17 9 C19.46120841 10.23060421 21.25776866 10.2057723 24.0078125 10.31640625 C24.99394531 10.35830078 25.98007812 10.40019531 26.99609375 10.44335938 C28.54490234 10.50233398 28.54490234 10.50233398 30.125 10.5625 C31.68541016 10.62727539 31.68541016 10.62727539 33.27734375 10.69335938 C35.85142528 10.7996288 38.42560508 10.90166583 41 11 C41 11.33 41 11.66 41 12 C-11.14 12 -63.28 12 -117 12 C-117 11.67 -117 11.34 -117 11 C-113.7 10.34 -110.4 9.68 -107 9 C-107 7.68 -107 6.36 -107 5 C-106.67 4.67 -106.34 4.34 -106 4 C-106.33 3.34 -106.66 2.68 -107 2 C-92.22222222 2 -92.22222222 2 -89 3 C-88 4 -88 4 -87.9375 6.5625 C-87.958125 7.366875 -87.97875 8.17125 -88 9 C-89.65 9 -91.3 9 -93 9 C-93 9.66 -93 10.32 -93 11 C-61.98 11 -30.96 11 1 11 C0.01 9.02 0.01 9.02 -1 7 C-0.34 7 0.32 7 1 7 C0.01 5.515 0.01 5.515 -1 4 C-0.625 1.8125 -0.625 1.8125 0 0 Z " fill="#8C8B8D" transform="translate(293,195)"/>
<path d="M0 0 C1.36722142 0.00667589 2.73442455 0.01863878 4.1015625 0.03515625 C4.78734375 0.03966797 5.473125 0.04417969 6.1796875 0.04882812 C8.0286746 0.0614185 9.87762375 0.07928931 11.7265625 0.09765625 C12.7165625 0.09765625 13.7065625 0.09765625 14.7265625 0.09765625 C15.3865625 0.42765625 16.0465625 0.75765625 16.7265625 1.09765625 C15.7365625 3.07765625 14.7465625 5.05765625 13.7265625 7.09765625 C52.9965625 7.42765625 92.2665625 7.75765625 132.7265625 8.09765625 C133.0565625 8.75765625 133.3865625 9.41765625 133.7265625 10.09765625 C82.2465625 10.09765625 30.7665625 10.09765625 -22.2734375 10.09765625 C-22.2734375 9.76765625 -22.2734375 9.43765625 -22.2734375 9.09765625 C-16.3334375 9.09765625 -10.3934375 9.09765625 -4.2734375 9.09765625 C-4.2734375 6.45765625 -4.2734375 3.81765625 -4.2734375 1.09765625 C-3.2734375 0.09765625 -3.2734375 0.09765625 0 0 Z " fill="#D6D6D8" transform="translate(200.2734375,305.90234375)"/>
<path d="M0 0 C3.70390021 2.02666238 5.65363011 3.48044516 8 7 C8.77286121 11.7180481 8.42364132 15.19654232 6.1875 19.4375 C3.97870631 22.02494403 2.32561181 23.74182841 -1.0859375 24.40625 C-5.46598924 24.58563778 -7.43169131 24.41753291 -11.0625 21.75 C-14.25456072 17.105995 -13.83259518 11.35561222 -13 6 C-9.58826355 0.20004803 -6.56497024 -0.54708085 0 0 Z " fill="#070808" transform="translate(237,130)"/>
<path d="M0 0 C12 0 12 0 17 3 C18 6.4375 18 6.4375 18 10 C17.03886134 11.36161311 16.04115841 12.69855198 15 14 C15.2769131 17.59987035 16.58505042 20.69845097 18 24 C16.02 24 14.04 24 12 24 C11.74476563 23.15115234 11.74476563 23.15115234 11.484375 22.28515625 C11.24203125 21.55167969 10.9996875 20.81820312 10.75 20.0625 C10.51796875 19.33160156 10.2859375 18.60070312 10.046875 17.84765625 C9.70140625 17.23792969 9.3559375 16.62820312 9 16 C7.68 15.67 6.36 15.34 5 15 C5 17.97 5 20.94 5 24 C3.35 24 1.7 24 0 24 C0 16.08 0 8.16 0 0 Z " fill="#1A1A1A" transform="translate(289,130)"/>
<path d="M0 0 C13.32413793 -0.49348659 13.32413793 -0.49348659 16.4609375 1.796875 C18 4 18 4 17.875 7.5 C17 11 17 11 15.75 13.0625 C14.65513212 15.21370817 14.65513212 15.21370817 16.375 18.125 C16.91125 19.07375 17.4475 20.0225 18 21 C18 21.66 18 22.32 18 23 C16.35 23 14.7 23 13 23 C9 16.25 9 16.25 9 14 C7.68 14 6.36 14 5 14 C5 16.97 5 19.94 5 23 C3.35 23 1.7 23 0 23 C0 15.41 0 7.82 0 0 Z " fill="#1A1B1B" transform="translate(203,131)"/>
<path d="M0 0 C2.265625 0.3125 2.265625 0.3125 5 1 C7.88974311 1.50531027 10.7803157 2.00518771 13.671875 2.5 C16 3 16 3 17 4 C17 6.31 17 8.62 17 11 C84.815 11.495 84.815 11.495 154 12 C154 12.33 154 12.66 154 13 C102.52 13 51.04 13 -2 13 C-2 12.01 -2 11.02 -2 10 C-0.35 9.67 1.3 9.34 3 9 C1.68 8.67 0.36 8.34 -1 8 C-1.625 5.125 -1.625 5.125 -2 2 C-1.34 1.34 -0.68 0.68 0 0 Z " fill="#F0F0F1" transform="translate(179,304)"/>
<path d="M0 0 C3.63 0 7.26 0 11 0 C11 9.57 11 19.14 11 29 C7.37 29 3.74 29 0 29 C0 19.43 0 9.86 0 0 Z " fill="#98999D" transform="translate(238,401)"/>
<path d="M0 0 C3.4375 1.75 3.4375 1.75 6 4 C6 5.32 6 6.64 6 8 C4.35 8 2.7 8 1 8 C0.67 6.68 0.34 5.36 0 4 C-3.79547921 4.96776098 -3.79547921 4.96776098 -7 7 C-7.07244053 9.01964199 -7.08377188 11.04167124 -7.0625 13.0625 C-7.05347656 14.16722656 -7.04445312 15.27195313 -7.03515625 16.41015625 C-7.02355469 17.26480469 -7.01195312 18.11945313 -7 19 C-4.69 19 -2.38 19 0 19 C0.33 17.68 0.66 16.36 1 15 C-0.32 15 -1.64 15 -3 15 C-3 13.68 -3 12.36 -3 11 C-0.03 11 2.94 11 6 11 C6 14.63 6 18.26 6 22 C1.41371225 23.8345151 -3.11355065 25.24100301 -8 24 C-11.48117898 21.63987866 -13.58052033 18.86507113 -14.5078125 14.7421875 C-14.7787614 9.4135257 -13.5217358 6.12546194 -10 2 C-6.24543433 -0.50304378 -4.45254066 -0.45280074 0 0 Z " fill="#161617" transform="translate(193,130)"/>
<path d="M0 0 C2.97 0 5.94 0 9 0 C9 9.24 9 18.48 9 28 C5.7 28 2.4 28 -1 28 C-1.02886338 23.52084672 -1.04675187 19.04171709 -1.0625 14.5625 C-1.07087891 13.28310547 -1.07925781 12.00371094 -1.08789062 10.68554688 C-1.09111328 9.47060547 -1.09433594 8.25566406 -1.09765625 7.00390625 C-1.10289307 5.87799072 -1.10812988 4.7520752 -1.11352539 3.59204102 C-1 1 -1 1 0 0 Z " fill="#7B7E81" transform="translate(217,401)"/>
<path d="M0 0 C3.3 0.33 6.6 0.66 10 1 C10 9.91 10 18.82 10 28 C6.7 28 3.4 28 0 28 C0 18.76 0 9.52 0 0 Z " fill="#464648" transform="translate(307,401)"/>
<path d="M0 0 C1.52519276 0.08937803 3.04681929 0.24537146 4.5625 0.4375 C5.38878906 0.53933594 6.21507812 0.64117187 7.06640625 0.74609375 C7.70449219 0.82988281 8.34257812 0.91367188 9 1 C9.87840996 4.09720845 9.99435406 5.90645403 9 9 C6.69 9.66 4.38 10.32 2 11 C2 11.66 2 12.32 2 13 C-1.72498407 14.24166136 -5.17302965 14.13152545 -9.05151367 14.11352539 C-9.87125168 14.11367142 -10.69098969 14.11381744 -11.53556824 14.1139679 C-14.24639528 14.11327096 -16.9571537 14.10548878 -19.66796875 14.09765625 C-21.54698143 14.09579129 -23.4259946 14.09436776 -25.30500793 14.09336853 C-30.25175315 14.08954948 -35.19846902 14.07972438 -40.14520264 14.06866455 C-45.19250085 14.0584373 -50.23980379 14.05386809 -55.28710938 14.04882812 C-65.19141914 14.03810159 -75.09570713 14.02103248 -85 14 C-85 13.34 -85 12.68 -85 12 C-43.42 11.505 -43.42 11.505 -1 11 C-1.495 9.02 -1.495 9.02 -2 7 C-2 4.47717345 -1.84805104 1.84805104 0 0 Z " fill="#9F9EA0" transform="translate(294,178)"/>
<path d="M0 0 C4.95 0 9.9 0 15 0 C15 1.32 15 2.64 15 4 C11.7 4 8.4 4 5 4 C5 5.65 5 7.3 5 9 C7.97 9 10.94 9 14 9 C14 10.32 14 11.64 14 13 C11.03 13 8.06 13 5 13 C5 14.65 5 16.3 5 18 C8.3 18 11.6 18 15 18 C15 19.65 15 21.3 15 23 C10.05 23 5.1 23 0 23 C0 15.41 0 7.82 0 0 Z " fill="#191A1A" transform="translate(271,131)"/>
<path d="M0 0 C2.0625 0.4375 2.0625 0.4375 4 1 C4 1.66 4 2.32 4 3 C4.66 2.67 5.32 2.34 6 2 C7.54023996 1.93049459 9.08334988 1.91547643 10.625 1.9375 C11.85089844 1.95103516 11.85089844 1.95103516 13.1015625 1.96484375 C14.04128906 1.98224609 14.04128906 1.98224609 15 2 C15 1.34 15 0.68 15 0 C15.66 0 16.32 0 17 0 C17 1.98 17 3.96 17 6 C16.360625 6.144375 15.72125 6.28875 15.0625 6.4375 C13.02454854 6.81007181 13.02454854 6.81007181 12 8 C9.66702567 8.04092937 7.33294775 8.04241723 5 8 C4.67 8.99 4.34 9.98 4 11 C4.928125 11.2165625 4.928125 11.2165625 5.875 11.4375 C8 12 8 12 10 13 C10 12.01 10 11.02 10 10 C10.66 10 11.32 10 12 10 C12 10.66 12 11.32 12 12 C12.721875 11.649375 13.44375 11.29875 14.1875 10.9375 C17.37506518 9.87497827 18.79412881 10.26018357 22 11 C24.23167185 10.63143136 24.23167185 10.63143136 26 10 C26 11.98 26 13.96 26 16 C21.05 16.495 21.05 16.495 16 17 C16.33 16.01 16.66 15.02 17 14 C16.0925 14.37125 15.185 14.7425 14.25 15.125 C11 16 11 16 8.625 15.125 C8.08875 14.75375 7.5525 14.3825 7 14 C7 14.66 7 15.32 7 16 C5.68 16 4.36 16 3 16 C2.67 15.34 2.34 14.68 2 14 C0.68 14.33 -0.64 14.66 -2 15 C-2.125 12.625 -2.125 12.625 -2 10 C-1.34 9.34 -0.68 8.68 0 8 C-0.66 7.34 -1.32 6.68 -2 6 C-1.44444444 1.44444444 -1.44444444 1.44444444 0 0 Z " fill="#58575B" transform="translate(179,376)"/>
<path d="M0 0 C2.64 0 5.28 0 8 0 C8 9.24 8 18.48 8 28 C2 29 2 29 0 29 C0 19.43 0 9.86 0 0 Z " fill="#494B4B" transform="translate(228,401)"/>
<path d="M0 0 C2.875 1.1875 2.875 1.1875 5 3 C5.8125 5.6875 5.8125 5.6875 6 8 C1.25 7.25 1.25 7.25 -1 5 C-4.30683466 5.28983269 -4.30683466 5.28983269 -7 7 C-7.09851171 8.83115883 -7.12972629 10.66619933 -7.125 12.5 C-7.12757813 13.5003125 -7.13015625 14.500625 -7.1328125 15.53125 C-7.27870382 17.94399622 -7.27870382 17.94399622 -6 19 C-3.54207971 19.33343551 -3.54207971 19.33343551 -1 19 C-0.34 18.01 0.32 17.02 1 16 C3.625 15.8125 3.625 15.8125 6 16 C4.55214724 21.55010225 4.55214724 21.55010225 2.3125 23.375 C-1.66720031 24.45059468 -5.3779109 24.52608295 -9.3125 23.25 C-11.44621638 21.66946935 -12.01215536 20.4675098 -13 18 C-13.64746175 12.52668961 -13.96020402 7.63234683 -11.125 2.8125 C-7.40378573 -0.36147687 -4.85936406 -0.32944841 0 0 Z " fill="#131313" transform="translate(261,130)"/>
<path d="M0 0 C0.66 0 1.32 0 2 0 C2 0.66 2 1.32 2 2 C3.32 2 4.64 2 6 2 C6.33 1.34 6.66 0.68 7 0 C7.33 0.99 7.66 1.98 8 3 C8.53625 2.835 9.0725 2.67 9.625 2.5 C12.45886009 1.90339788 15.1119806 1.9343632 18 2 C19 5 19 5 18 8 C16.68 8 15.36 8 14 8 C13.67 6.68 13.34 5.36 13 4 C12.34 4 11.68 4 11 4 C11 5.98 11 7.96 11 10 C7.89585298 10.02903577 4.79174091 10.0468107 1.6875 10.0625 C0.36588867 10.07506836 0.36588867 10.07506836 -0.98242188 10.08789062 C-1.82998047 10.09111328 -2.67753906 10.09433594 -3.55078125 10.09765625 C-4.33106689 10.10289307 -5.11135254 10.10812988 -5.9152832 10.11352539 C-8 10 -8 10 -11 9 C-11 8.34 -11 7.68 -11 7 C-10.01 7 -9.02 7 -8 7 C-8 6.34 -8 5.68 -8 5 C-9.32 4.67 -10.64 4.34 -12 4 C-12 3.01 -12 2.02 -12 1 C-10.35 1 -8.7 1 -7 1 C-7.33 1.66 -7.66 2.32 -8 3 C-5.36 2.67 -2.72 2.34 0 2 C0 1.34 0 0.68 0 0 Z " fill="#C4C4C5" transform="translate(189,339)"/>
<path d="M0 0 C1.98 0 3.96 0 6 0 C7.77449594 1.77449594 7.13030072 4.35017261 7.1328125 6.75 C7.13410156 7.9153125 7.13539063 9.080625 7.13671875 10.28125 C7.13285156 11.5084375 7.12898438 12.735625 7.125 14 C7.12886719 15.2271875 7.13273437 16.454375 7.13671875 17.71875 C7.13542969 18.8840625 7.13414062 20.049375 7.1328125 21.25 C7.13168457 22.32765625 7.13055664 23.4053125 7.12939453 24.515625 C7 27 7 27 6 28 C4.02 28 2.04 28 0 28 C0 18.76 0 9.52 0 0 Z " fill="#5A5C5F" transform="translate(283,401)"/>
<path d="M0 0 C1.67542976 0.28604898 3.34385343 0.61781233 5 1 C4.67 2.32 4.34 3.64 4 5 C3.67 4.01 3.34 3.02 3 2 C2.34 2 1.68 2 1 2 C1 2.99 1 3.98 1 5 C1.66 5 2.32 5 3 5 C3 5.66 3 6.32 3 7 C2.34 7 1.68 7 1 7 C1 7.66 1 8.32 1 9 C45.88 9 90.76 9 137 9 C137 9.33 137 9.66 137 10 C85.52 10 34.04 10 -19 10 C-19 9.67 -19 9.34 -19 9 C-13.06 9 -7.12 9 -1 9 C-1 6.36 -1 3.72 -1 1 C-0.67 0.67 -0.34 0.34 0 0 Z " fill="#717273" transform="translate(197,306)"/>
<path d="M0 0 C1.65 0 3.3 0 5 0 C6.32 2.64 7.64 5.28 9 8 C10.77706209 5.33440687 11.87548273 2.9719385 13 0 C14.98 0 16.96 0 19 0 C18.12584249 2.3310867 17.23124554 4.58777969 16.01171875 6.76171875 C13.01997707 12.12509565 12.25025253 16.89383827 12 23 C10.35 23 8.7 23 7 23 C6.99742187 22.40574219 6.99484375 21.81148437 6.9921875 21.19921875 C6.67926125 14.49216608 4.73301971 9.9742256 1.27734375 4.25 C0 2 0 2 0 0 Z " fill="#131313" transform="translate(309,131)"/>
<path d="M0 0 C1.32 0 2.64 0 4 0 C4 2.31 4 4.62 4 7 C5.31449127 6.99746216 6.62898254 6.99492432 7.98330688 6.99230957 C21.85232748 6.97397973 35.71781884 7.06915809 49.5859375 7.21875 C51.75167744 7.24126961 53.91741843 7.26368784 56.0831604 7.28601074 C61.70201689 7.34419107 67.32085825 7.40372079 72.93969727 7.46356201 C78.70588318 7.5247235 84.47208278 7.58456675 90.23828125 7.64453125 C101.49220102 7.76175339 112.7461052 7.88040556 124 8 C124 8.33 124 8.66 124 9 C107.8842296 9.04669327 91.76848109 9.0819757 75.65265942 9.10362434 C68.17002796 9.11394276 60.68743849 9.12801385 53.20483398 9.15087891 C46.68400635 9.17079552 40.16320913 9.18371233 33.64235193 9.18817699 C30.1886912 9.19078731 26.73511748 9.19693436 23.2814846 9.21146011 C19.4287692 9.22753337 15.57613941 9.2279808 11.72338867 9.22705078 C10.00033005 9.23783661 10.00033005 9.23783661 8.24246216 9.24884033 C7.19498306 9.246091 6.14750397 9.24334167 5.06828308 9.24050903 C4.15662982 9.24235262 3.24497656 9.24419621 2.30569744 9.24609566 C0 9 0 9 -3 7 C-2.01 6.34 -1.02 5.68 0 5 C0 4.01 0 3.02 0 2 C0.99 2.66 1.98 3.32 3 4 C3 3.01 3 2.02 3 1 C2.01 0.67 1.02 0.34 0 0 Z " fill="#807F80" transform="translate(210,342)"/>
<path d="M0 0 C2.97 0.495 2.97 0.495 6 1 C6 9.91 6 18.82 6 28 C4.02 28 2.04 28 0 28 C0 18.76 0 9.52 0 0 Z " fill="#616265" transform="translate(199,401)"/>
<path d="M0 0 C1.98 0 3.96 0 6 0 C6 8.91 6 17.82 6 27 C4.02 27 2.04 27 0 27 C0 18.09 0 9.18 0 0 Z " fill="#626564" transform="translate(263,402)"/>
<path d="M0 0 C1.98 0 3.96 0 6 0 C6 8.91 6 17.82 6 27 C4.02 27 2.04 27 0 27 C0 18.09 0 9.18 0 0 Z " fill="#4E4F50" transform="translate(324,402)"/>
<path d="M0 0 C14.77777778 0 14.77777778 0 18 1 C19 2 19 2 19.0625 4.5625 C19.041875 5.366875 19.02125 6.17125 19 7 C17.35 7 15.7 7 14 7 C14 7.66 14 8.32 14 9 C8.63510405 9.90483637 3.49682543 10.12303662 -1.9375 10.0625 C-2.71673828 10.05798828 -3.49597656 10.05347656 -4.29882812 10.04882812 C-6.19925268 10.03716908 -8.09963706 10.01923877 -10 10 C-10 9.67 -10 9.34 -10 9 C-6.7 8.34 -3.4 7.68 0 7 C0 5.68 0 4.36 0 3 C0.33 2.67 0.66 2.34 1 2 C0.67 1.34 0.34 0.68 0 0 Z " fill="#D4D4D5" transform="translate(186,197)"/>
<path d="M0 0 C3.3 0 6.6 0 10 0 C10 0.33 10 0.66 10 1 C7.03 1 4.06 1 1 1 C1.33 1.99 1.66 2.98 2 4 C3.53837154 14.77602604 3.12798944 25.78508497 3.09765625 36.640625 C3.09578766 38.61887577 3.09436584 40.59712701 3.09336853 42.57537842 C3.08957804 47.74393017 3.07977797 52.91245315 3.06866455 58.08099365 C3.05837527 63.37039806 3.05385491 68.65980719 3.04882812 73.94921875 C3.03815209 84.29949171 3.02111809 94.64974345 3 105 C2.67 105 2.34 105 2 105 C1.9845388 103.70026245 1.9845388 103.70026245 1.96876526 102.37426758 C1.87007289 94.1381555 1.76746864 85.9021029 1.66066074 77.66609192 C1.60590583 73.43366715 1.55257165 69.20123518 1.50268555 64.96875 C1.45432986 60.87083002 1.40197966 56.77297745 1.34705925 52.67514038 C1.32695251 51.12537352 1.30819503 49.57558844 1.29092598 48.02578735 C1.18700583 38.79366379 0.86265604 29.61818654 0.21716309 20.40710449 C-0.05749001 16.09803056 -0.11593182 11.81564689 -0.0625 7.5 C-0.05798828 6.76136719 -0.05347656 6.02273437 -0.04882812 5.26171875 C-0.03743887 3.50777396 -0.01953571 1.75387297 0 0 Z " fill="#929292" transform="translate(160,79)"/>
<path d="M0 0 C1.32 0 2.64 0 4 0 C4 9.57 4 19.14 4 29 C2.35 28.67 0.7 28.34 -1 28 C-1.02886338 23.52084672 -1.04675187 19.04171709 -1.0625 14.5625 C-1.07087891 13.28310547 -1.07925781 12.00371094 -1.08789062 10.68554688 C-1.09111328 9.47060547 -1.09433594 8.25566406 -1.09765625 7.00390625 C-1.10289307 5.87799072 -1.10812988 4.7520752 -1.11352539 3.59204102 C-1 1 -1 1 0 0 Z " fill="#717174" transform="translate(252,401)"/>
<path d="M0 0 C2.4375 0.8125 2.4375 0.8125 4.4375 2.8125 C4.73828125 5.08984375 4.73828125 5.08984375 4.75 7.75 C4.76675781 8.62527344 4.78351563 9.50054687 4.80078125 10.40234375 C4.4375 12.8125 4.4375 12.8125 3.11328125 14.640625 C1.4375 15.8125 1.4375 15.8125 -1.6875 15.625 C-2.63625 15.356875 -3.585 15.08875 -4.5625 14.8125 C-5.78941067 12.35867866 -5.76425931 10.61265897 -5.8125 7.875 C-5.83828125 6.99972656 -5.8640625 6.12445313 -5.890625 5.22265625 C-5.5625 2.8125 -5.5625 2.8125 -4.20703125 0.984375 C-2.5625 -0.1875 -2.5625 -0.1875 0 0 Z " fill="#F3F3F4" transform="translate(234.5625,134.1875)"/>
<path d="M0 0 C1.65 0 3.3 0 5 0 C5 8.91 5 17.82 5 27 C3.35 27 1.7 27 0 27 C0 18.09 0 9.18 0 0 Z " fill="#434749" transform="translate(210,402)"/>
<path d="M0 0 C1.65 0 3.3 0 5 0 C5 8.91 5 17.82 5 27 C3.35 27 1.7 27 0 27 C0 18.09 0 9.18 0 0 Z " fill="#2D2E2E" transform="translate(292,402)"/>
<path d="M0 0 C3.70390021 2.02666238 5.65363011 3.48044516 8 7 C8.1953125 9.26171875 8.1953125 9.26171875 8.125 11.6875 C8.10695312 12.49574219 8.08890625 13.30398437 8.0703125 14.13671875 C8.04710937 14.75160156 8.02390625 15.36648437 8 16 C7.67 16 7.34 16 7 16 C7 13.36 7 10.72 7 8 C5.68 8.33 4.36 8.66 3 9 C3 11.31 3 13.62 3 16 C2.67 16 2.34 16 2 16 C1.92652344 15.06027344 1.92652344 15.06027344 1.8515625 14.1015625 C1.77679688 13.28429687 1.70203125 12.46703125 1.625 11.625 C1.55539063 10.81289062 1.48578125 10.00078125 1.4140625 9.1640625 C1.17107412 6.79665809 1.17107412 6.79665809 -1 5 C-4.30683466 5.28983269 -4.30683466 5.28983269 -7 7 C-7.23075082 8.34747084 -7.41153063 9.70377565 -7.5625 11.0625 C-7.706875 12.361875 -7.85125 13.66125 -8 15 C-8.33 15 -8.66 15 -9 15 C-9.33 12.69 -9.66 10.38 -10 8 C-10.99 8.33 -11.98 8.66 -13 9 C-12.71897086 5.62765029 -12.19628348 4.21360261 -9.875 1.6875 C-6.20506413 -0.46659279 -4.20089295 -0.58959901 0 0 Z " fill="#1E1E1F" transform="translate(237,130)"/>
<path d="M0 0 C2.26171875 0.30859375 2.26171875 0.30859375 5 1 C6.93678017 1.35808216 8.87429326 1.71222167 10.8125 2.0625 C11.78832031 2.23910156 12.76414063 2.41570312 13.76953125 2.59765625 C14.50558594 2.73042969 15.24164063 2.86320312 16 3 C15.67 3.66 15.34 4.32 15 5 C14.34 4.67 13.68 4.34 13 4 C13 4.66 13 5.32 13 6 C13.99 6.33 14.98 6.66 16 7 C11.49636698 10.37772476 8.44178833 10.43188796 3 10 C0.5625 9.375 0.5625 9.375 -1 8 C-1.875 5 -1.875 5 -2 2 C-1.34 1.34 -0.68 0.68 0 0 Z " fill="#B9BABB" transform="translate(179,304)"/>
<path d="M0 0 C0.33 1.32 0.66 2.64 1 4 C2.65 4 4.3 4 6 4 C6 4.33 6 4.66 6 5 C5.2575 5.144375 4.515 5.28875 3.75 5.4375 C1.47972261 5.90187492 -0.75759479 6.41863569 -3 7 C-3 8.32 -3 9.64 -3 11 C-1.68 11 -0.36 11 1 11 C0.67 12.65 0.34 14.3 0 16 C-2.3431213 15.74438677 -4.67843403 15.40729228 -7 15 C-8.22691067 12.54617866 -8.20175931 10.80015897 -8.25 8.0625 C-8.27578125 7.18722656 -8.3015625 6.31195313 -8.328125 5.41015625 C-8 3 -8 3 -6.65234375 1.1953125 C-4.39186011 -0.43993099 -2.72022409 -0.22055871 0 0 Z " fill="#EFF0F1" transform="translate(193,134)"/>
<path d="M0 0 C5.28 0 10.56 0 16 0 C16 2.64 16 5.28 16 8 C10.39 8 4.78 8 -1 8 C0 3 0 3 1 2 C0.67 1.34 0.34 0.68 0 0 Z " fill="#E5E3E6" transform="translate(317,215)"/>
<path d="M0 0 C2.0625 0.4375 2.0625 0.4375 4 1 C4 1.99 4 2.98 4 4 C3.01 4 2.02 4 1 4 C1.66 4.66 2.32 5.32 3 6 C2.34 6.66 1.68 7.32 1 8 C1 8.33 1 8.66 1 9 C-9.89 9 -20.78 9 -32 9 C-32 8.34 -32 7.68 -32 7 C-24.41 7 -16.82 7 -9 7 C-9 5.02 -9 3.04 -9 1 C-5.73045798 1.56371414 -4.17424117 2.49962266 -2 5 C-1.855625 4.360625 -1.71125 3.72125 -1.5625 3.0625 C-1 1 -1 1 0 0 Z " fill="#DEDEE0" transform="translate(209,342)"/>
<path d="M0 0 C2.64 0 5.28 0 8 0 C8 9.24 8 18.48 8 28 C6.35 28.33 4.7 28.66 3 29 C3.66 28.67 4.32 28.34 5 28 C5 19.09 5 10.18 5 1 C4.34 1 3.68 1 3 1 C3 7.6 3 14.2 3 21 C2.67 21 2.34 21 2 21 C2 14.4 2 7.8 2 1 C1.34 0.67 0.68 0.34 0 0 Z " fill="#9C9C9E" transform="translate(228,401)"/>
<path d="M0 0 C1.32 0 2.64 0 4 0 C4 9.24 4 18.48 4 28 C2.68 28 1.36 28 0 28 C0 18.76 0 9.52 0 0 Z " fill="#6B6C6C" transform="translate(188,402)"/>
<path d="M0 0 C2.0625 0.4375 2.0625 0.4375 4 1 C4 1.66 4 2.32 4 3 C4.66 2.67 5.32 2.34 6 2 C7.54023996 1.93049459 9.08334988 1.91547643 10.625 1.9375 C11.85089844 1.95103516 11.85089844 1.95103516 13.1015625 1.96484375 C14.04128906 1.98224609 14.04128906 1.98224609 15 2 C15 1.34 15 0.68 15 0 C15.66 0 16.32 0 17 0 C17 1.98 17 3.96 17 6 C16.360625 6.144375 15.72125 6.28875 15.0625 6.4375 C13.02454854 6.81007181 13.02454854 6.81007181 12 8 C9.66666667 8 7.33333333 8 5 8 C3.88625 8.3403125 3.88625 8.3403125 2.75 8.6875 C1 9 1 9 -0.8125 7.875 C-2 6 -2 6 -1.75 3.375 C-1 1 -1 1 0 0 Z " fill="#B2B3B2" transform="translate(179,376)"/>
<path d="M0 0 C1.32 0 2.64 0 4 0 C4 8.91 4 17.82 4 27 C2.68 27 1.36 27 0 27 C0 18.09 0 9.18 0 0 Z " fill="#909294" transform="translate(313,402)"/>
<path d="M0 0 C1.32 0 2.64 0 4 0 C4 8.91 4 17.82 4 27 C2.68 27 1.36 27 0 27 C0 18.09 0 9.18 0 0 Z " fill="#2B2D2F" transform="translate(245,402)"/>
<path d="M0 0 C1.45823212 -0.0270043 2.91660675 -0.04639787 4.375 -0.0625 C5.18710937 -0.07410156 5.99921875 -0.08570313 6.8359375 -0.09765625 C9 0 9 0 11 1 C12.66821323 0.67449498 14.33499557 0.34153937 16 0 C17 1 17 1 17.0625 4.5625 C17.041875 5.696875 17.02125 6.83125 17 8 C14.36 7.67 11.72 7.34 9 7 C9 5.35 9 3.7 9 2 C8.01 2 7.02 2 6 2 C6 3.98 6 5.96 6 8 C4.02 8 2.04 8 0 8 C0 5.36 0 2.72 0 0 Z " fill="#6B6D6C" transform="translate(315,195)"/>
<path d="M0 0 C1.1446875 0.2475 1.1446875 0.2475 2.3125 0.5 C5.00856207 1.00159294 6.44020291 0.8532657 9 0 C9.33 0.66 9.66 1.32 10 2 C10.33 1.34 10.66 0.68 11 0 C12.65 0.33 14.3 0.66 16 1 C15.67 2.98 15.34 4.96 15 7 C13.68 7 12.36 7 11 7 C11 6.34 11 5.68 11 5 C10.01 5.66 9.02 6.32 8 7 C5.27716095 7.31254378 2.75557514 7.13333428 0 7 C-1 6 -1 6 -1.125 3.5 C-1 1 -1 1 0 0 Z " fill="#A9A9AB" transform="translate(318,244)"/>
<path d="M0 0 C1.34061543 0.30271961 2.67405895 0.63837971 4 1 C6.03107031 1.099425 6.03107031 1.099425 8 0.375 C8.66 0.25125 9.32 0.1275 10 0 C10.66 0.66 11.32 1.32 12 2 C11.625 5.125 11.625 5.125 11 8 C9.68 8.33 8.36 8.66 7 9 C6.67 8.01 6.34 7.02 6 6 C5.34 6 4.68 6 4 6 C3.67 6.99 3.34 7.98 3 9 C2.01 9 1.02 9 0 9 C-2 6 -2 6 -1.6875 3.375 C-1 1 -1 1 0 0 Z " fill="#5D5E5E" transform="translate(321,179)"/>
<path d="M0 0 C1.67542976 0.28604898 3.34385343 0.61781233 5 1 C4.67 2.32 4.34 3.64 4 5 C3.67 4.01 3.34 3.02 3 2 C2.34 2 1.68 2 1 2 C1 2.99 1 3.98 1 5 C1.66 5 2.32 5 3 5 C3 5.66 3 6.32 3 7 C2.34 7 1.68 7 1 7 C1 7.66 1 8.32 1 9 C13.87 9 26.74 9 40 9 C40 9.33 40 9.66 40 10 C20.53 10 1.06 10 -19 10 C-19 9.67 -19 9.34 -19 9 C-13.06 9 -7.12 9 -1 9 C-1 6.36 -1 3.72 -1 1 C-0.67 0.67 -0.34 0.34 0 0 Z " fill="#7F8181" transform="translate(197,306)"/>
<path d="M0 0 C1.52519276 0.08937803 3.04681929 0.24537146 4.5625 0.4375 C5.80193359 0.59025391 5.80193359 0.59025391 7.06640625 0.74609375 C7.70449219 0.82988281 8.34257812 0.91367188 9 1 C10.08174162 4.36541838 9.92538169 5.29847322 9 9 C5.37 9 1.74 9 -2 9 C-2 2 -2 2 0 0 Z " fill="#E3E3E6" transform="translate(294,178)"/>
<path d="M0 0 C0.99 0 1.98 0 3 0 C3 9.24 3 18.48 3 28 C2.01 28 1.02 28 0 28 C0 18.76 0 9.52 0 0 Z " fill="#58595A" transform="translate(194,402)"/>
<path d="M0 0 C0.91523438 0.0721875 1.83046875 0.144375 2.7734375 0.21875 C3.96195313 0.3115625 5.15046875 0.404375 6.375 0.5 C8.15003906 0.63921875 8.15003906 0.63921875 9.9609375 0.78125 C11.63786843 0.90195454 13.31873056 1 15 1 C15.99 1.33 16.98 1.66 18 2 C17.34 2 16.68 2 16 2 C15.67 3.32 15.34 4.64 15 6 C9.65370398 7.0024305 5.37625234 6.84888195 0 6 C0 4.02 0 2.04 0 0 Z " fill="#9F9FA1" transform="translate(184,273)"/>
<path d="M0 0 C0.99 0 1.98 0 3 0 C3 8.91 3 17.82 3 27 C2.01 27 1.02 27 0 27 C0 18.09 0 9.18 0 0 Z " fill="#1D1D1F" transform="translate(302,402)"/>
<path d="M0 0 C0.99 0 1.98 0 3 0 C3 8.91 3 17.82 3 27 C2.01 27 1.02 27 0 27 C0 18.09 0 9.18 0 0 Z " fill="#4B4C50" transform="translate(223,402)"/>
<path d="M0 0 C0.99 0 1.98 0 3 0 C3 8.91 3 17.82 3 27 C2.01 27 1.02 27 0 27 C0 18.09 0 9.18 0 0 Z " fill="#2D2D31" transform="translate(258,402)"/>
<path d="M0 0 C2.31 0.33 4.62 0.66 7 1 C7 1.66 7 2.32 7 3 C7.66 3 8.32 3 9 3 C9 2.01 9 1.02 9 0 C11.64 0.33 14.28 0.66 17 1 C16.67 2.65 16.34 4.3 16 6 C13 6 10 6 7 6 C5.66216607 6.31478446 4.32796291 6.64587656 3 7 C2.67 5.68 2.34 4.36 2 3 C1.34 3 0.68 3 0 3 C0 3.66 0 4.32 0 5 C-0.66 4.67 -1.32 4.34 -2 4 C-1.34 2.68 -0.68 1.36 0 0 Z " fill="#7C7D7D" transform="translate(189,231)"/>
<path d="M0 0 C-1.875 4.75 -1.875 4.75 -3 7 C-3.66 6.67 -4.32 6.34 -5 6 C-4.34 4.68 -3.68 3.36 -3 2 C-3.99 1.67 -4.98 1.34 -6 1 C-6.66 3.31 -7.32 5.62 -8 8 C-10.64 7.67 -13.28 7.34 -16 7 C-16 6.34 -16 5.68 -16 5 C-15.34 5 -14.68 5 -14 5 C-14 4.01 -14 3.02 -14 2 C-14.66 1.67 -15.32 1.34 -16 1 C-14.33524314 0.65725594 -12.66804677 0.32635698 -11 0 C-10.01 -0.20625 -9.02 -0.4125 -8 -0.625 C-5.00805051 -0.99899369 -2.89403213 -0.76606733 0 0 Z " fill="#BDBEC0" transform="translate(334,287)"/>
<path d="M0 0 C2.69082872 0.17635452 5.32851446 0.61835921 8 1 C7.67 2.65 7.34 4.3 7 6 C3.37 6 -0.26 6 -4 6 C-4 4.68 -4 3.36 -4 2 C-6.33075929 2.95865509 -6.33075929 2.95865509 -8 6 C-8 4.68 -8 3.36 -8 2 C-8.66 2 -9.32 2 -10 2 C-10 3.32 -10 4.64 -10 6 C-10.66 6 -11.32 6 -12 6 C-12 4.35 -12 2.7 -12 1 C-11.21753906 1.01160156 -10.43507812 1.02320313 -9.62890625 1.03515625 C-8.61699219 1.04417969 -7.60507813 1.05320313 -6.5625 1.0625 C-5.04849609 1.07990234 -5.04849609 1.07990234 -3.50390625 1.09765625 C-1.05978933 1.28612676 -1.05978933 1.28612676 0 0 Z " fill="#353533" transform="translate(204,181)"/>
<path d="M0 0 C1.32 0.33 2.64 0.66 4 1 C4.33 0.67 4.66 0.34 5 0 C6.66617115 -0.04063832 8.33388095 -0.042721 10 0 C10.625 3.375 10.625 3.375 11 7 C10.34 7.66 9.68 8.32 9 9 C7.66158328 8.68770276 6.32860925 8.35169068 5 8 C3.68 8.33 2.36 8.66 1 9 C0.67 6.03 0.34 3.06 0 0 Z " fill="#C3C2C4" transform="translate(299,195)"/>
<path d="M0 0 C0.66 0 1.32 0 2 0 C2 2.64 2 5.28 2 8 C0.9275 7.814375 -0.145 7.62875 -1.25 7.4375 C-4.52657449 7.05523298 -5.98279004 7.13794001 -9 8 C-9.99 7.67 -10.98 7.34 -12 7 C-12 6.34 -12 5.68 -12 5 C-12.66 5 -13.32 5 -14 5 C-14.33 5.99 -14.66 6.98 -15 8 C-15.33 8 -15.66 8 -16 8 C-16 6.35 -16 4.7 -16 3 C-10.72 3 -5.44 3 0 3 C0 2.01 0 1.02 0 0 Z " fill="#828385" transform="translate(330,163)"/>
<path d="M0 0 C1.32 0 2.64 0 4 0 C4 2.31 4 4.62 4 7 C7.3 7.33 10.6 7.66 14 8 C14 8.33 14 8.66 14 9 C4.43 9 -5.14 9 -15 9 C-15 8.01 -15 7.02 -15 6 C-13.64455078 5.92652344 -13.64455078 5.92652344 -12.26171875 5.8515625 C-11.08222656 5.77679688 -9.90273437 5.70203125 -8.6875 5.625 C-6.92986328 5.52058594 -6.92986328 5.52058594 -5.13671875 5.4140625 C-1.84300113 5.21386253 -1.84300113 5.21386253 1 3 C0.67 2.01 0.34 1.02 0 0 Z " fill="#E3E4E4" transform="translate(192,308)"/>
<path d="M0 0 C3.3 0 6.6 0 10 0 C10 2.64 10 5.28 10 8 C7.03 8 4.06 8 1 8 C1.33 6.35 1.66 4.7 2 3 C1.34 2.67 0.68 2.34 0 2 C0 1.34 0 0.68 0 0 Z " fill="#DFDFE0" transform="translate(299,379)"/>
<path d="M0 0 C0.66 0 1.32 0 2 0 C2.33 0.66 2.66 1.32 3 2 C4.32 2 5.64 2 7 2 C7.33 3.65 7.66 5.3 8 7 C4.98968256 7.93423645 4.13349732 8.04449911 1 7 C-0.33783393 7.31478446 -1.67203709 7.64587656 -3 8 C-4 7 -4 7 -4.0625 4.4375 C-4.041875 3.633125 -4.02125 2.82875 -4 2 C-2.68 2 -1.36 2 0 2 C0 1.34 0 0.68 0 0 Z " fill="#757779" transform="translate(196,322)"/>
<path d="M0 0 C6 0 12 0 18 0 C17.67 1.65 17.34 3.3 17 5 C16.01 5 15.02 5 14 5 C14 4.34 14 3.68 14 3 C14.99 3 15.98 3 17 3 C17 2.34 17 1.68 17 1 C15.68 1.33 14.36 1.66 13 2 C13 2.66 13 3.32 13 4 C12.34 4 11.68 4 11 4 C10.67 4.66 10.34 5.32 10 6 C9.67 4.68 9.34 3.36 9 2 C8.34 2 7.68 2 7 2 C7 2.99 7 3.98 7 5 C4.125 5.1875 4.125 5.1875 1 5 C0.34 4.01 -0.32 3.02 -1 2 C-0.67 1.34 -0.34 0.68 0 0 Z " fill="#848485" transform="translate(184,362)"/>
<path d="M0 0 C1.32 0 2.64 0 4 0 C4.33 0.66 4.66 1.32 5 2 C5.33 1.34 5.66 0.68 6 0 C7.65 0.33 9.3 0.66 11 1 C11 2.65 11 4.3 11 6 C7.01080675 7.1004671 3.98919325 7.1004671 0 6 C0 4.02 0 2.04 0 0 Z " fill="#A2A2A4" transform="translate(323,340)"/>
<path d="M0 0 C1.32 0.66 2.64 1.32 4 2 C3.67 3.65 3.34 5.3 3 7 C1.68 7 0.36 7 -1 7 C-3.00401011 7.30830925 -5.00511766 7.63729412 -7 8 C-7 5.69 -7 3.38 -7 1 C-5.68 1 -4.36 1 -3 1 C-3 1.66 -3 2.32 -3 3 C-2.34 3 -1.68 3 -1 3 C-0.67 2.01 -0.34 1.02 0 0 Z " fill="#969698" transform="translate(330,304)"/>
<path d="M0 0 C0.62145499 8.89025894 0.62145499 8.89025894 -1.75 13.125 C-4 15 -4 15 -8 15 C-6.125 9.125 -6.125 9.125 -5 8 C-4.7834375 6.2675 -4.7834375 6.2675 -4.5625 4.5 C-4.376875 3.345 -4.19125 2.19 -4 1 C-2 0 -2 0 0 0 Z " fill="#060606" transform="translate(244,138)"/>
<path d="M0 0 C0.66 0 1.32 0 2 0 C2.33 0.99 2.66 1.98 3 3 C3.66 3 4.32 3 5 3 C5.33 3.33 5.66 3.66 6 4 C6.33 3.34 6.66 2.68 7 2 C9.62113708 2 11.50935112 2.31292445 14 3 C13.67 4.65 13.34 6.3 13 8 C12.443125 7.814375 11.88625 7.62875 11.3125 7.4375 C8.96712418 6.84408398 8.96712418 6.84408398 6.5 7.5 C3.90177093 8.01964581 2.4799699 7.82665663 0 7 C0 4.69 0 2.38 0 0 Z " fill="#848589" transform="translate(218,272)"/>
<path d="M0 0 C0 4 0 4 -1.5 5.75 C-1.995 6.1625 -2.49 6.575 -3 7 C-3 6.34 -3 5.68 -3 5 C-3.99 5.66 -4.98 6.32 -6 7 C-7.34262065 6.70630173 -8.67696283 6.3721042 -10 6 C-10.99 6.33 -11.98 6.66 -13 7 C-13.33 5.35 -13.66 3.7 -14 2 C-13.01 2 -12.02 2 -11 2 C-11.33 2.66 -11.66 3.32 -12 4 C-11.34 4 -10.68 4 -10 4 C-9.67 3.01 -9.34 2.02 -9 1 C-5.846632 0.29925156 -3.27275026 0 0 0 Z " fill="#8E8F8D" transform="translate(235,231)"/>
<path d="M0 0 C2.31 0.33 4.62 0.66 7 1 C7 2.32 7 3.64 7 5 C7.99 5 8.98 5 10 5 C10.33 4.34 10.66 3.68 11 3 C10.34 2.67 9.68 2.34 9 2 C10.9375 1.4375 10.9375 1.4375 13 1 C14 2 14 2 14.0625 4.5625 C14.041875 5.366875 14.02125 6.17125 14 7 C11.03 7 8.06 7 5 7 C5 6.01 5 5.02 5 4 C3.68 4 2.36 4 1 4 C0.67 4.99 0.34 5.98 0 7 C0 4.69 0 2.38 0 0 Z " fill="#78797B" transform="translate(178,287)"/>
<path d="M0 0 C1.65 0 3.3 0 5 0 C5.33 0.99 5.66 1.98 6 3 C7.65 2.34 9.3 1.68 11 1 C11.33 2.65 11.66 4.3 12 6 C9.10765685 6.82638376 7.11257569 7 4 7 C4 6.34 4 5.68 4 5 C3.34 5 2.68 5 2 5 C2 5.66 2 6.32 2 7 C1.34 7 0.68 7 0 7 C0 4.69 0 2.38 0 0 Z " fill="#9F9EA2" transform="translate(177,164)"/>
<path d="M0 0 C0.99 0 1.98 0 3 0 C3 1.65 3 3.3 3 5 C3.99 3.35 4.98 1.7 6 0 C7.32 0.33 8.64 0.66 10 1 C9.67 2.98 9.34 4.96 9 7 C5.75370153 8.08209949 5.12563502 7.78140875 2 7 C1.01 7.33 0.02 7.66 -1 8 C-1 7.34 -1 6.68 -1 6 C-0.34 6 0.32 6 1 6 C0.67 4.68 0.34 3.36 0 2 C-0.33 2.99 -0.66 3.98 -1 5 C-1.33 4.34 -1.66 3.68 -2 3 C-1.34 2.01 -0.68 1.02 0 0 Z " fill="#999A9B" transform="translate(324,322)"/>
<path d="M0 0 C1.64574566 -0.02688151 3.29161413 -0.04634123 4.9375 -0.0625 C5.85402344 -0.07410156 6.77054688 -0.08570313 7.71484375 -0.09765625 C10 0 10 0 11 1 C11.04063832 2.66617115 11.042721 4.33388095 11 6 C10.34 6 9.68 6 9 6 C9 4.68 9 3.36 9 2 C8.34 2 7.68 2 7 2 C7 3.65 7 5.3 7 7 C4.69 7 2.38 7 0 7 C0 3 0 3 1 2 C0.67 1.34 0.34 0.68 0 0 Z " fill="#585959" transform="translate(186,197)"/>
<path d="M0 0 C1.65 0 3.3 0 5 0 C4.01 0.66 3.02 1.32 2 2 C3.32 2.66 4.64 3.32 6 4 C6 2.68 6 1.36 6 0 C7.32 0.33 8.64 0.66 10 1 C9.34 1 8.68 1 8 1 C8 1.66 8 2.32 8 3 C8.66 3.33 9.32 3.66 10 4 C9.01 4 8.02 4 7 4 C7 4.99 7 5.98 7 7 C8.32 6.34 9.64 5.68 11 5 C11 5.99 11 6.98 11 8 C7.37 8 3.74 8 0 8 C0 5.36 0 2.72 0 0 Z " fill="#2C2C2D" transform="translate(314,379)"/>
<path d="M0 0 C1.3303125 0.5259375 1.3303125 0.5259375 2.6875 1.0625 C6.13194564 2.0373431 7.61770563 1.82272025 11 1 C11.99 1.33 12.98 1.66 14 2 C14 3.66666667 14 5.33333333 14 7 C12.68 7 11.36 7 10 7 C10.33 6.01 10.66 5.02 11 4 C10.34 3.67 9.68 3.34 9 3 C9 3.66 9 4.32 9 5 C8.01 5.33 7.02 5.66 6 6 C6.99 6.33 7.98 6.66 9 7 C1.125 6.125 1.125 6.125 0 5 C-0.04063832 3.33382885 -0.042721 1.66611905 0 0 Z " fill="#929294" transform="translate(200,245)"/>
<path d="M0 0 C1.32 0 2.64 0 4 0 C4 2.31 4 4.62 4 7 C11.26 7 18.52 7 26 7 C26 7.33 26 7.66 26 8 C21.72989093 8.22551667 17.45898818 8.42747453 13.1875 8.625 C11.97255859 8.68945312 10.75761719 8.75390625 9.50585938 8.8203125 C8.34248047 8.871875 7.17910156 8.9234375 5.98046875 8.9765625 C4.90692139 9.02893066 3.83337402 9.08129883 2.72729492 9.13525391 C0 9 0 9 -3 7 C-2.01 6.34 -1.02 5.68 0 5 C0 4.01 0 3.02 0 2 C0.99 2.66 1.98 3.32 3 4 C3 3.01 3 2.02 3 1 C2.01 0.67 1.02 0.34 0 0 Z " fill="#888888" transform="translate(210,342)"/>
<path d="M0 0 C3.3 0 6.6 0 10 0 C10 1.98 10 3.96 10 6 C9.01 6.495 9.01 6.495 8 7 C8 6.34 8 5.68 8 5 C3.545 6.485 3.545 6.485 -1 8 C-0.125 3.125 -0.125 3.125 1 2 C0.67 1.34 0.34 0.68 0 0 Z " fill="#ABA8AC" transform="translate(317,215)"/>
<path d="M0 0 C2.66929007 0.8657157 4.67741836 1.72191238 6.8125 3.5625 C8.62592027 7.28478371 8.23472483 10.93143633 8 15 C7.67 15 7.34 15 7 15 C7 12.36 7 9.72 7 7 C5.68 7.33 4.36 7.66 3 8 C3 10.31 3 12.62 3 15 C2.67 15 2.34 15 2 15 C1.92652344 14.09507812 1.92652344 14.09507812 1.8515625 13.171875 C1.77679688 12.37265625 1.70203125 11.5734375 1.625 10.75 C1.55539063 9.96109375 1.48578125 9.1721875 1.4140625 8.359375 C1.1104336 5.95629275 1.1104336 5.95629275 -0.1015625 3.828125 C-0.39804688 3.22484375 -0.69453125 2.6215625 -1 2 C-0.67 1.34 -0.34 0.68 0 0 Z " fill="#2F2F2F" transform="translate(237,131)"/>
<path d="M0 0 C0.66 0 1.32 0 2 0 C2.33 0.99 2.66 1.98 3 3 C4.32 3 5.64 3 7 3 C8.68698082 3.61344757 10.35965807 4.27095914 12 5 C11.67 6.32 11.34 7.64 11 9 C10.34 8.67 9.68 8.34 9 8 C7.45976004 7.93049459 5.91665012 7.91547643 4.375 7.9375 C3.55773437 7.94652344 2.74046875 7.95554687 1.8984375 7.96484375 C1.27195313 7.97644531 0.64546875 7.98804688 0 8 C0 5.36 0 2.72 0 0 Z " fill="#7D7E80" transform="translate(204,286)"/>
<path d="M0 0 C1.67542976 0.28604898 3.34385343 0.61781233 5 1 C3.02 1.99 3.02 1.99 1 3 C1.33 3.99 1.66 4.98 2 6 C2.99 5.34 3.98 4.68 5 4 C5.33 4.33 5.66 4.66 6 5 C6.33 4.01 6.66 3.02 7 2 C7.99 2 8.98 2 10 2 C10 2.66 10 3.32 10 4 C10.66 4 11.32 4 12 4 C12.33 3.34 12.66 2.68 13 2 C13.33 3.32 13.66 4.64 14 6 C9.49016424 8.25491788 5.94576735 8.32431261 1 8 C-1 6 -1 6 -1.1875 3.4375 C-1 1 -1 1 0 0 Z " fill="#757676" transform="translate(178,258)"/>
<path d="M0 0 C0.99 0 1.98 0 3 0 C3 1.65 3 3.3 3 5 C5.64 5.33 8.28 5.66 11 6 C11 4.02 11 2.04 11 0 C11.33 0 11.66 0 12 0 C12.33 1.98 12.66 3.96 13 6 C7.35600642 8.44064587 2.02248522 8.19289099 -4 8 C-3.67 7.34 -3.34 6.68 -3 6 C-2.01 6 -1.02 6 0 6 C0 4.02 0 2.04 0 0 Z " fill="#DBDBDC" transform="translate(321,197)"/>
<path d="M0 0 C0.66 0 1.32 0 2 0 C2 0.66 2 1.32 2 2 C2.66 2 3.32 2 4 2 C4 1.34 4 0.68 4 0 C4.66 0 5.32 0 6 0 C6 2.31 6 4.62 6 7 C5.34 7 4.68 7 4 7 C4 5.68 4 4.36 4 3 C3.34 3 2.68 3 2 3 C2 4.32 2 5.64 2 7 C-0.66666667 7 -3.33333333 7 -6 7 C-5.67 5.35 -5.34 3.7 -5 2 C-3.35 2.33 -1.7 2.66 0 3 C0 2.01 0 1.02 0 0 Z " fill="#B6B7B9" transform="translate(270,164)"/>
<path d="M0 0 C0.99 0 1.98 0 3 0 C4.125 4.75 4.125 4.75 3 7 C0.36 7 -2.28 7 -5 7 C-5 5.68 -5 4.36 -5 3 C-5.33 3.99 -5.66 4.98 -6 6 C-6.66 6 -7.32 6 -8 6 C-7.67 4.68 -7.34 3.36 -7 2 C-5.68 1.67 -4.36 1.34 -3 1 C-2.67 1.66 -2.34 2.32 -2 3 C-1.34 2.01 -0.68 1.02 0 0 Z " fill="#8C8C8E" transform="translate(330,272)"/>
<path d="M0 0 C1.65 0 3.3 0 5 0 C4.67 0.66 4.34 1.32 4 2 C6.31 2 8.62 2 11 2 C11 3.65 11 5.3 11 7 C9.63875 6.9690625 9.63875 6.9690625 8.25 6.9375 C5.57327412 6.9889755 3.53011948 7.2215017 1 8 C1 7.34 1 6.68 1 6 C1.99 6 2.98 6 4 6 C4 5.34 4 4.68 4 4 C2.68 3.67 1.36 3.34 0 3 C0 2.01 0 1.02 0 0 Z " fill="#6D6D6D" transform="translate(177,340)"/>
<path d="M0 0 C1.2065625 0.0309375 1.2065625 0.0309375 2.4375 0.0625 C3.0625 2.9375 3.0625 2.9375 3.4375 6.0625 C2.7775 6.7225 2.1175 7.3825 1.4375 8.0625 C-1.1875 7.6875 -1.1875 7.6875 -3.5625 7.0625 C-3.60504356 5.06295254 -3.60330783 3.06208364 -3.5625 1.0625 C-2.5625 0.0625 -2.5625 0.0625 0 0 Z " fill="#5C5C5D" transform="translate(329.5625,378.9375)"/>
<path d="M0 0 C0.33 0 0.66 0 1 0 C1.33 1.98 1.66 3.96 2 6 C-0.64 6 -3.28 6 -6 6 C-6 5.34 -6 4.68 -6 4 C-6.66 4 -7.32 4 -8 4 C-8 4.66 -8 5.32 -8 6 C-8.66 6 -9.32 6 -10 6 C-9.67 4.68 -9.34 3.36 -9 2 C-6.94921875 1.77213542 -4.8984375 1.54427083 -2.84765625 1.31640625 C-0.98859771 1.18113386 -0.98859771 1.18113386 0 0 Z " fill="#8F8F8F" transform="translate(213,360)"/>
<path d="M0 0 C1.98 0.495 1.98 0.495 4 1 C4.99 1 5.98 1 7 1 C6.01 2.98 5.02 4.96 4 7 C10.6 7.33 17.2 7.66 24 8 C24 8.33 24 8.66 24 9 C15.75 9 7.5 9 -1 9 C-0.01 8.67 0.98 8.34 2 8 C1.34 5.36 0.68 2.72 0 0 Z " fill="#C9C9CA" transform="translate(210,306)"/>
<path d="M0 0 C2.31 0 4.62 0 7 0 C7.38218767 1.65614657 7.71395102 3.32457024 8 5 C7 6 7 6 3.4375 6.0625 C2.303125 6.041875 1.16875 6.02125 0 6 C0 4.02 0 2.04 0 0 Z " fill="#E5E6E7" transform="translate(294,135)"/>
<path d="M0 0 C1.32 0 2.64 0 4 0 C4.33 0.66 4.66 1.32 5 2 C5.99 2 6.98 2 8 2 C8 3.65 8 5.3 8 7 C6.68 7 5.36 7 4 7 C3.67 6.34 3.34 5.68 3 5 C1.68 5.33 0.36 5.66 -1 6 C-1.042721 4.33388095 -1.04063832 2.66617115 -1 1 C-0.67 0.67 -0.34 0.34 0 0 Z " fill="#5A5A5B" transform="translate(178,385)"/>
<path d="M0 0 C0.721875 0.185625 1.44375 0.37125 2.1875 0.5625 C5.12826973 1.01995307 7.14103058 0.73516357 10 0 C10 1.32 10 2.64 10 4 C6.61981469 5.04005702 3.5219721 5.08004482 0 5 C0 3.35 0 1.7 0 0 Z " fill="#A2A2A5" transform="translate(302,166)"/>
<path d="M0 0 C1.98 0.495 1.98 0.495 4 1 C4.625 4.375 4.625 4.375 5 8 C4.34 8.66 3.68 9.32 3 10 C0.875 9.625 0.875 9.625 -1 9 C-1 5.72724974 -0.70074844 3.153368 0 0 Z " fill="#373836" transform="translate(293,378)"/>
<path d="M0 0 C0.66 0 1.32 0 2 0 C2.33 0.99 2.66 1.98 3 3 C2.67 3.66 2.34 4.32 2 5 C2.598125 4.34 3.19625 3.68 3.8125 3 C6 1 6 1 9 1 C9 2.98 9 4.96 9 7 C6.69 6.67 4.38 6.34 2 6 C2 6.66 2 7.32 2 8 C1.01 8 0.02 8 -1 8 C-0.835 7.236875 -0.67 6.47375 -0.5 5.6875 C0.09145396 2.96403764 0.09145396 2.96403764 0 0 Z " fill="#8C8C8E" transform="translate(252,359)"/>
<path d="M0 0 C2.97 0.33 5.94 0.66 9 1 C8.34 2.98 7.68 4.96 7 7 C6.34 6.34 5.68 5.68 5 5 C2.39719432 5.32041397 2.39719432 5.32041397 0 6 C-1 4 -1 4 0 0 Z " fill="#757779" transform="translate(201,217)"/>
<path d="M0 0 C2.00720923 0.28674418 4.0085944 0.61866701 6 1 C6 2.98 6 4.96 6 7 C4.00045254 7.04254356 1.99958364 7.04080783 0 7 C-1 6 -1 6 -1.125 3.5 C-1 1 -1 1 0 0 Z " fill="#96979A" transform="translate(318,244)"/>
<path d="M0 0 C2.31 0 4.62 0 7 0 C7 1.98 7 3.96 7 6 C4.69 6 2.38 6 0 6 C0 4.02 0 2.04 0 0 Z " fill="#EFEFEF" transform="translate(208,135)"/>
<path d="M0 0 C1.23556641 0.01740234 1.23556641 0.01740234 2.49609375 0.03515625 C3.32238281 0.04417969 4.14867187 0.05320312 5 0.0625 C5.63808594 0.07410156 6.27617187 0.08570313 6.93359375 0.09765625 C7.93359375 3.09765625 7.93359375 3.09765625 6.93359375 6.09765625 C5.61359375 6.09765625 4.29359375 6.09765625 2.93359375 6.09765625 C2.60359375 4.77765625 2.27359375 3.45765625 1.93359375 2.09765625 C1.27359375 2.09765625 0.61359375 2.09765625 -0.06640625 2.09765625 C-0.06640625 3.41765625 -0.06640625 4.73765625 -0.06640625 6.09765625 C-0.72640625 6.09765625 -1.38640625 6.09765625 -2.06640625 6.09765625 C-2.44859392 4.44150968 -2.78035727 2.77308601 -3.06640625 1.09765625 C-2.06640625 0.09765625 -2.06640625 0.09765625 0 0 Z " fill="#767679" transform="translate(200.06640625,340.90234375)"/>
<path d="M0 0 C0 2.31 0 4.62 0 7 C0.99 7 1.98 7 3 7 C3.33 6.34 3.66 5.68 4 5 C5.32 5.99 6.64 6.98 8 8 C4.04 8 0.08 8 -4 8 C-4 7.34 -4 6.68 -4 6 C-3.34 6 -2.68 6 -2 6 C-2.9977758 3.00667261 -3.7522025 2.05233685 -6 0 C-2.25 -1.125 -2.25 -1.125 0 0 Z " fill="#E9E9EA" transform="translate(300,197)"/>
<path d="M0 0 C1.98 0.495 1.98 0.495 4 1 C4 2.32 4 3.64 4 5 C4.99 5 5.98 5 7 5 C6.34 4.67 5.68 4.34 5 4 C5 2.68 5 1.36 5 0 C6.32 0.33 7.64 0.66 9 1 C9 2.65 9 4.3 9 6 C5.42355152 7.2380014 2.66305234 6.74926071 -1 6 C-0.01 5.67 0.98 5.34 2 5 C2 3.68 2 2.36 2 1 C1.34 0.67 0.68 0.34 0 0 Z " fill="#9A9A9A" transform="translate(225,360)"/>
<path d="M0 0 C1.65 0.33 3.3 0.66 5 1 C4.01 1.66 3.02 2.32 2 3 C2.99 3.66 3.98 4.32 5 5 C5 5.99 5 6.98 5 8 C4.34 8 3.68 8 3 8 C3 8.66 3 9.32 3 10 C1.68 9.34 0.36 8.68 -1 8 C-0.34 7.67 0.32 7.34 1 7 C0.34 6.01 -0.32 5.02 -1 4 C-0.625 1.8125 -0.625 1.8125 0 0 Z " fill="#3A3A3F" transform="translate(293,195)"/>
<path d="M0 0 C1.98 0.99 1.98 0.99 4 2 C4 2.66 4 3.32 4 4 C4.66 4 5.32 4 6 4 C6.33 2.68 6.66 1.36 7 0 C7 2.64 7 5.28 7 8 C6.34 8 5.68 8 5 8 C4.34 7.01 3.68 6.02 3 5 C2.67 6.32 2.34 7.64 2 9 C1.34 9 0.68 9 0 9 C0 6.03 0 3.06 0 0 Z " fill="#383938" transform="translate(177,179)"/>
<path d="M0 0 C0.99 0.33 1.98 0.66 3 1 C2.67 2.65 2.34 4.3 2 6 C-0.97 5.505 -0.97 5.505 -4 5 C-4 4.01 -4 3.02 -4 2 C-4.66 2 -5.32 2 -6 2 C-6.33 3.32 -6.66 4.64 -7 6 C-7.33 4.68 -7.66 3.36 -8 2 C-6.35 1.67 -4.7 1.34 -3 1 C-3 1.66 -3 2.32 -3 3 C-2.34 3 -1.68 3 -1 3 C-0.67 2.01 -0.34 1.02 0 0 Z " fill="#939496" transform="translate(255,165)"/>
<path d="M0 0 C2.97 0 5.94 0 9 0 C9 0.66 9 1.32 9 2 C8.34 2 7.68 2 7 2 C7 2.66 7 3.32 7 4 C6.01 4 5.02 4 4 4 C4 4.66 4 5.32 4 6 C2.68 5.67 1.36 5.34 0 5 C0 3.35 0 1.7 0 0 Z " fill="#828285" transform="translate(193,260)"/>
<path d="M0 0 C0.66 0 1.32 0 2 0 C2.33 0.66 2.66 1.32 3 2 C4.32 2 5.64 2 7 2 C6.67 3.65 6.34 5.3 6 7 C4.02 7 2.04 7 0 7 C0 4.69 0 2.38 0 0 Z " fill="#919391" transform="translate(210,230)"/>
<path d="M0 0 C1.65 0 3.3 0 5 0 C5.625 3.375 5.625 3.375 6 7 C5.34 7.66 4.68 8.32 4 9 C3.01 9 2.02 9 1 9 C0.67 6.03 0.34 3.06 0 0 Z " fill="#373739" transform="translate(304,195)"/>
<path d="M0 0 C1.52519276 0.08937803 3.04681929 0.24537146 4.5625 0.4375 C5.80193359 0.59025391 5.80193359 0.59025391 7.06640625 0.74609375 C7.70449219 0.82988281 8.34257812 0.91367187 9 1 C8.67 1.66 8.34 2.32 8 3 C7.34 2.67 6.68 2.34 6 2 C6 2.66 6 3.32 6 4 C6.99 4.33 7.98 4.66 9 5 C7.68 5.33 6.36 5.66 5 6 C4.67 5.34 4.34 4.68 4 4 C2.35 4.66 0.7 5.32 -1 6 C-1.042721 4.33388095 -1.04063832 2.66617115 -1 1 C-0.67 0.67 -0.34 0.34 0 0 Z " fill="#5E5D5E" transform="translate(186,306)"/>
<path d="M0 0 C4.08718695 -0.24042276 7.17679443 0.57741188 11 2 C9.68 2.33 8.36 2.66 7 3 C7.33 4.32 7.66 5.64 8 7 C7.34 7 6.68 7 6 7 C5.67 6.01 5.34 5.02 5 4 C4.01 4 3.02 4 2 4 C2 4.66 2 5.32 2 6 C1.34 6 0.68 6 0 6 C0 4.02 0 2.04 0 0 Z " fill="#919392" transform="translate(177,230)"/>
<path d="M0 0 C0.556875 0.185625 1.11375 0.37125 1.6875 0.5625 C4.399133 1.07551165 6.34371039 0.6640724 9 0 C9.33 0.66 9.66 1.32 10 2 C8.75 3.5 8.75 3.5 7 5 C5.68 5 4.36 5 3 5 C2.67 4.34 2.34 3.68 2 3 C1.01 3.33 0.02 3.66 -1 4 C-0.67 2.68 -0.34 1.36 0 0 Z " fill="#515152" transform="translate(221,378)"/>
<path d="M0 0 C0.66 0 1.32 0 2 0 C2.33 0.99 2.66 1.98 3 3 C2.67 3.33 2.34 3.66 2 4 C2.66 4.66 3.32 5.32 4 6 C4 6.99 4 7.98 4 9 C2.02 9 0.04 9 -2 9 C-2 2 -2 2 0 0 Z " fill="#313031" transform="translate(294,178)"/>
<path d="M0 0 C1.98 0 3.96 0 6 0 C6 2 6 4 6 6 C4.02 6 2.04 6 0 6 C0 4.02 0 2.04 0 0 Z " fill="#707073" transform="translate(203,306)"/>
<path d="M0 0 C-1.875 4.75 -1.875 4.75 -3 7 C-3.66 6.67 -4.32 6.34 -5 6 C-4.34 4.68 -3.68 3.36 -3 2 C-3.99 1.67 -4.98 1.34 -6 1 C-6.28875 1.804375 -6.5775 2.60875 -6.875 3.4375 C-8 6 -8 6 -10 7 C-9.34 5.35 -8.68 3.7 -8 2 C-8.66 2 -9.32 2 -10 2 C-10 1.34 -10 0.68 -10 0 C-6.30458414 -0.95024979 -3.69541586 -0.95024979 0 0 Z " fill="#868789" transform="translate(334,287)"/>
<path d="M0 0 C0 1.98 0 3.96 0 6 C-2.31 6 -4.62 6 -7 6 C-7.33 4.35 -7.66 2.7 -8 1 C-5.23735711 0.40267181 -2.83967231 0 0 0 Z " fill="#6E6D72" transform="translate(205,386)"/>
<path d="M0 0 C0.66 0 1.32 0 2 0 C2 1.98 2 3.96 2 6 C-0.31 6.33 -2.62 6.66 -5 7 C-5 5.35 -5 3.7 -5 2 C-3.35 2 -1.7 2 0 2 C0 1.34 0 0.68 0 0 Z " fill="#727273" transform="translate(194,376)"/>
<path d="M0 0 C2.31 0.33 4.62 0.66 7 1 C6.67 2.98 6.34 4.96 6 7 C4.68 6.67 3.36 6.34 2 6 C2 5.01 2 4.02 2 3 C1.34 3 0.68 3 0 3 C0 3.66 0 4.32 0 5 C-0.66 4.67 -1.32 4.34 -2 4 C-1.34 2.68 -0.68 1.36 0 0 Z " fill="#999A9B" transform="translate(189,231)"/>
<path d="M0 0 C2.475 0.495 2.475 0.495 5 1 C4.34 3.31 3.68 5.62 3 8 C2.01 8 1.02 8 0 8 C0 5.36 0 2.72 0 0 Z " fill="#797B7B" transform="translate(315,195)"/>
<path d="M0 0 C0.33 0 0.66 0 1 0 C1 2.97 1 5.94 1 9 C-0.65 8.67 -2.3 8.34 -4 8 C-3.67 6.35 -3.34 4.7 -3 3 C-2.01 3 -1.02 3 0 3 C0 2.01 0 1.02 0 0 Z " fill="#989A9A" transform="translate(198,214)"/>
<path d="M0 0 C0 2.31 0 4.62 0 7 C-0.66 6.67 -1.32 6.34 -2 6 C-2 5.01 -2 4.02 -2 3 C-3.32 3 -4.64 3 -6 3 C-6 3.99 -6 4.98 -6 6 C-5.01 6.33 -4.02 6.66 -3 7 C-4.65 6.67 -6.3 6.34 -8 6 C-7.8125 4.125 -7.8125 4.125 -7 2 C-4.55683729 0.74709605 -2.75474605 0 0 0 Z " fill="#A1A2A4" transform="translate(285,164)"/>
<path d="M0 0 C1.98 0 3.96 0 6 0 C6 1.65 6 3.3 6 5 C3.625 5.1875 3.625 5.1875 1 5 C0.34 4.01 -0.32 3.02 -1 2 C-0.67 1.34 -0.34 0.68 0 0 Z " fill="#B1B1B1" transform="translate(184,362)"/>
<path d="M0 0 C1.65 0 3.3 0 5 0 C4.34 2.64 3.68 5.28 3 8 C1.68 7.67 0.36 7.34 -1 7 C-0.67 6.01 -0.34 5.02 0 4 C0 2.68 0 1.36 0 0 Z " fill="#959798" transform="translate(205,324)"/>
<path d="M0 0 C1.67542976 0.28604898 3.34385343 0.61781233 5 1 C5 2.65 5 4.3 5 6 C3.35 6 1.7 6 0 6 C-0.38218767 4.34385343 -0.71395102 2.67542976 -1 1 C-0.67 0.67 -0.34 0.34 0 0 Z " fill="#C3C5C4" transform="translate(199,288)"/>
<path d="M0 0 C0.66 0 1.32 0 2 0 C2.33 0.66 2.66 1.32 3 2 C3.66 2 4.32 2 5 2 C5 1.34 5 0.68 5 0 C5.66 0 6.32 0 7 0 C7 1.98 7 3.96 7 6 C6.34 6 5.68 6 5 6 C4.67 5.34 4.34 4.68 4 4 C3.34 4 2.68 4 2 4 C2 4.99 2 5.98 2 7 C1.34 7 0.68 7 0 7 C0 4.69 0 2.38 0 0 Z " fill="#89898A" transform="translate(186,244)"/>
<path d="M0 0 C0.66 0 1.32 0 2 0 C2 2.31 2 4.62 2 7 C0.68 7 -0.64 7 -2 7 C-2 5.68 -2 4.36 -2 3 C-2.99 3 -3.98 3 -5 3 C-5.33 4.32 -5.66 5.64 -6 7 C-6 5.35 -6 3.7 -6 2 C-4.35 2 -2.7 2 -1 2 C-0.67 1.34 -0.34 0.68 0 0 Z " fill="#8B8A8D" transform="translate(191,215)"/>
<path d="M0 0 C1.66611905 -0.042721 3.33382885 -0.04063832 5 0 C6 1 6 1 6.0625 4.0625 C6.041875 5.031875 6.02125 6.00125 6 7 C5.67 6.01 5.34 5.02 5 4 C3.68 4 2.36 4 1 4 C0.67 4.99 0.34 5.98 0 7 C0 4.69 0 2.38 0 0 Z " fill="#969797" transform="translate(178,287)"/>
<path d="M0 0 C1.32 0 2.64 0 4 0 C4 1.65 4 3.3 4 5 C4.66 5.33 5.32 5.66 6 6 C3.625 6.125 3.625 6.125 1 6 C0.34 5.34 -0.32 4.68 -1 4 C-0.625 1.875 -0.625 1.875 0 0 Z " fill="#A5A3A5" transform="translate(185,378)"/>
<path d="M0 0 C1.65 0 3.3 0 5 0 C4.01 0.66 3.02 1.32 2 2 C2.66 2.33 3.32 2.66 4 3 C4 4.65 4 6.3 4 8 C2.68 8 1.36 8 0 8 C0 5.36 0 2.72 0 0 Z " fill="#686867" transform="translate(314,379)"/>
<path d="M0 0 C1.32 0 2.64 0 4 0 C4.33 1.98 4.66 3.96 5 6 C3.0625 6.5625 3.0625 6.5625 1 7 C0 6 0 6 -0.0625 2.9375 C-0.041875 1.968125 -0.02125 0.99875 0 0 Z " fill="#8C8C8E" transform="translate(323,340)"/>
<path d="M0 0 C2.475 0.495 2.475 0.495 5 1 C3.68 1.33 2.36 1.66 1 2 C1 2.66 1 3.32 1 4 C2.32 3.67 3.64 3.34 5 3 C5 4.32 5 5.64 5 7 C3.35 7 1.7 7 0 7 C0 4.69 0 2.38 0 0 Z " fill="#8F9094" transform="translate(206,272)"/>
<path d="M0 0 C1.98 0.495 1.98 0.495 4 1 C4.33 2.98 4.66 4.96 5 7 C1.25 8.125 1.25 8.125 -1 7 C-0.67 6.34 -0.34 5.68 0 5 C0.99 5.33 1.98 5.66 3 6 C3 5.34 3 4.68 3 4 C1.68 4 0.36 4 -1 4 C-0.67 2.68 -0.34 1.36 0 0 Z " fill="#7D7B7F" transform="translate(178,272)"/>
<path d="M0 0 C0 1.98 0 3.96 0 6 C-1.65 6 -3.3 6 -5 6 C-5 4.35 -5 2.7 -5 1 C-3 0 -3 0 0 0 Z " fill="#89898A" transform="translate(199,245)"/>
<path d="M0 0 C2.125 0.375 2.125 0.375 4 1 C4 2.65 4 4.3 4 6 C2.35 6 0.7 6 -1 6 C-1.625 4.125 -1.625 4.125 -2 2 C-1.34 1.34 -0.68 0.68 0 0 Z " fill="#353536" transform="translate(200,197)"/>
<path d="M0 0 C1.32 0 2.64 0 4 0 C4 1.65 4 3.3 4 5 C2.68 5.33 1.36 5.66 0 6 C-0.38218767 4.34385343 -0.71395102 2.67542976 -1 1 C-0.67 0.67 -0.34 0.34 0 0 Z " fill="#A9AAAA" transform="translate(244,360)"/>
<path d="M0 0 C1.11375 0.556875 1.11375 0.556875 2.25 1.125 C2.25 3.125 2.25 3.125 0.25 5.25 C-0.41 5.86875 -1.07 6.4875 -1.75 7.125 C-2.41 6.795 -3.07 6.465 -3.75 6.125 C-3.42 5.135 -3.09 4.145 -2.75 3.125 C-4.07 2.465 -5.39 1.805 -6.75 1.125 C-4.02098495 -0.69434337 -3.21400584 -1.02263822 0 0 Z " fill="#C1C0C0" transform="translate(185.75,196.875)"/>
<path d="M0 0 C1.32 0 2.64 0 4 0 C3.67 2.97 3.34 5.94 3 9 C2.34 9 1.68 9 1 9 C0.67 6.03 0.34 3.06 0 0 Z " fill="#5B5B5D" transform="translate(314,179)"/>
<path d="M0 0 C1.98 0.495 1.98 0.495 4 1 C4 2.65 4 4.3 4 6 C2.35 5.67 0.7 5.34 -1 5 C-0.67 3.35 -0.34 1.7 0 0 Z " fill="#9B9B9B" transform="translate(292,166)"/>
<path d="M0 0 C1.98 0.495 1.98 0.495 4 1 C3.67 2.65 3.34 4.3 3 6 C1.68 5.67 0.36 5.34 -1 5 C-0.67 3.35 -0.34 1.7 0 0 Z " fill="#868789" transform="translate(213,260)"/>
<path d="M0 0 C2.475 0.495 2.475 0.495 5 1 C4.75 2.875 4.75 2.875 4 5 C1.9375 6.25 1.9375 6.25 0 7 C0 4.69 0 2.38 0 0 Z " fill="#8B8B8D" transform="translate(323,259)"/>
<path d="M0 0 C2.31 0 4.62 0 7 0 C7 2 7 4 7 6 C5.68 6 4.36 6 3 6 C3.33 5.01 3.66 4.02 4 3 C3.34 2.67 2.68 2.34 2 2 C2 2.66 2 3.32 2 4 C1.34 4 0.68 4 0 4 C0 2.68 0 1.36 0 0 Z " fill="#7D7F7D" transform="translate(207,246)"/>
<path d="M0 0 C0.66 0.33 1.32 0.66 2 1 C1.67 1.66 1.34 2.32 1 3 C2.98 3 4.96 3 7 3 C7 3.99 7 4.98 7 6 C6.401875 5.814375 5.80375 5.62875 5.1875 5.4375 C2.83591238 4.77906313 2.83591238 4.77906313 0 6 C-0.38218767 4.34385343 -0.71395102 2.67542976 -1 1 C-0.67 0.67 -0.34 0.34 0 0 Z " fill="#9B9C9C" transform="translate(222,232)"/>
<path d="M0 0 C1.65 0 3.3 0 5 0 C4.67 2.64 4.34 5.28 4 8 C3.01 8 2.02 8 1 8 C1.33 6.35 1.66 4.7 2 3 C1.34 2.67 0.68 2.34 0 2 C0 1.34 0 0.68 0 0 Z " fill="#373536" transform="translate(299,379)"/>
<path d="M0 0 C2 0 2 0 3.625 1.5 C4.07875 1.995 4.5325 2.49 5 3 C5.33 2.34 5.66 1.68 6 1 C5.67 2.98 5.34 4.96 5 7 C4.01 6.67 3.02 6.34 2 6 C1.01 6.495 1.01 6.495 0 7 C0 4.69 0 2.38 0 0 Z " fill="#575857" transform="translate(213,376)"/>
<path d="M0 0 C0.66 0.33 1.32 0.66 2 1 C2 2.65 2 4.3 2 6 C-0.31 6.33 -2.62 6.66 -5 7 C-5 6.34 -5 5.68 -5 5 C-4.01 5 -3.02 5 -2 5 C-1.34 3.35 -0.68 1.7 0 0 Z " fill="#B9B9B9" transform="translate(240,360)"/>
<path d="M0 0 C0.66 0.66 1.32 1.32 2 2 C1.625 4.125 1.625 4.125 1 6 C0.01 6 -0.98 6 -2 6 C-2 4.68 -2 3.36 -2 2 C-2.99 2 -3.98 2 -5 2 C-5.33 2.99 -5.66 3.98 -6 5 C-6 3.68 -6 2.36 -6 1 C-4.7934375 1.0309375 -4.7934375 1.0309375 -3.5625 1.0625 C-1.06645115 1.29633621 -1.06645115 1.29633621 0 0 Z " fill="#767779" transform="translate(189,323)"/>
<path d="M0 0 C1.65 0.33 3.3 0.66 5 1 C4.67 2.32 4.34 3.64 4 5 C3.67 4.01 3.34 3.02 3 2 C2.34 2 1.68 2 1 2 C1 2.99 1 3.98 1 5 C1.66 5.33 2.32 5.66 3 6 C1.68 5.67 0.36 5.34 -1 5 C-0.67 3.35 -0.34 1.7 0 0 Z " fill="#5E5E60" transform="translate(197,306)"/>
<path d="M0 0 C0.99 0.33 1.98 0.66 3 1 C3.33 2.98 3.66 4.96 4 7 C2.35 7.33 0.7 7.66 -1 8 C-0.67 7.34 -0.34 6.68 0 6 C-0.33 5.67 -0.66 5.34 -1 5 C-0.71395102 3.32457024 -0.38218767 1.65614657 0 0 Z " fill="#777778" transform="translate(324,229)"/>
<path d="M0 0 C-0.33 2.64 -0.66 5.28 -1 8 C-1.99 8.33 -2.98 8.66 -4 9 C-3.67 6.69 -3.34 4.38 -3 2 C-3.66 1.67 -4.32 1.34 -5 1 C-2 0 -2 0 0 0 Z " fill="#3E3E41" transform="translate(309,179)"/>
<path d="M0 0 C2.475 0.495 2.475 0.495 5 1 C4.67 2.65 4.34 4.3 4 6 C2.68 5.67 1.36 5.34 0 5 C0 3.35 0 1.7 0 0 Z " fill="#3A3839" transform="translate(186,182)"/>
<path d="M0 0 C0.66 0 1.32 0 2 0 C2 2.64 2 5.28 2 8 C0.68 8 -0.64 8 -2 8 C-2 6.68 -2 5.36 -2 4 C-1.34 4 -0.68 4 0 4 C0 2.68 0 1.36 0 0 Z " fill="#A7A7AA" transform="translate(330,163)"/>
<path d="M0 0 C2.475 0.495 2.475 0.495 5 1 C4.67 1.66 4.34 2.32 4 3 C5.65 3.33 7.3 3.66 9 4 C9 4.33 9 4.66 9 5 C6.03 5 3.06 5 0 5 C0 3.35 0 1.7 0 0 Z " fill="#EAEBEC" transform="translate(276,135)"/>
<path d="M0 0 C0.66 0 1.32 0 2 0 C2 0.66 2 1.32 2 2 C2.99 2.33 3.98 2.66 5 3 C4.34 4.65 3.68 6.3 3 8 C1 7 1 7 -0.1875 4.5625 C-1 2 -1 2 0 0 Z " fill="#EAEAEA" transform="translate(297,379)"/>
<path d="M0 0 C1.65 0 3.3 0 5 0 C5 1.98 5 3.96 5 6 C3.35 5.67 1.7 5.34 0 5 C0 3.35 0 1.7 0 0 Z " fill="#828586" transform="translate(218,259)"/>
<path d="M0 0 C1.98 0.495 1.98 0.495 4 1 C4 3.31 4 5.62 4 8 C2.35 8 0.7 8 -1 8 C-0.67 7.34 -0.34 6.68 0 6 C0.66 6 1.32 6 2 6 C2 5.01 2 4.02 2 3 C1.34 2.67 0.68 2.34 0 2 C-0.33 2.66 -0.66 3.32 -1 4 C-0.67 2.68 -0.34 1.36 0 0 Z " fill="#1B1D1D" transform="translate(328,195)"/>
<path d="M0 0 C2.475 0.495 2.475 0.495 5 1 C4.67 2.32 4.34 3.64 4 5 C2.68 5 1.36 5 0 5 C0 3.35 0 1.7 0 0 Z " fill="#9B9C9C" transform="translate(214,166)"/>
<path d="M0 0 C0.66 0.33 1.32 0.66 2 1 C1.01 2.485 1.01 2.485 0 4 C0.66 4.33 1.32 4.66 2 5 C-0.97 5 -3.94 5 -7 5 C-6.01 4.67 -5.02 4.34 -4 4 C-3.67 3.01 -3.34 2.02 -3 1 C-2.01 0.67 -1.02 0.34 0 0 Z " fill="#212122" transform="translate(236,149)"/>
<path d="M0 0 C3.3 0 6.6 0 10 0 C8.68 0.33 7.36 0.66 6 1 C6 2.32 6 3.64 6 5 C3.5625 4.1875 3.5625 4.1875 1 3 C0.67 2.01 0.34 1.02 0 0 Z " fill="#D2D2D2" transform="translate(314,378)"/>
<path d="M0 0 C1.32 0 2.64 0 4 0 C4 1.98 4 3.96 4 6 C2.68 5.67 1.36 5.34 0 5 C0 3.35 0 1.7 0 0 Z " fill="#9C9D9E" transform="translate(192,324)"/>
<path d="M0 0 C1.32 0 2.64 0 4 0 C4.98120464 3.05263664 4.98120464 4.94736336 4 8 C2.68 7.67 1.36 7.34 0 7 C0.99 5.35 1.98 3.7 3 2 C2.01 2 1.02 2 0 2 C0 1.34 0 0.68 0 0 Z " fill="#39393C" transform="translate(299,179)"/>
<path d="M0 0 C0.99 0.33 1.98 0.66 3 1 C3 2.65 3 4.3 3 6 C1.35 5.67 -0.3 5.34 -2 5 C-1.125 1.125 -1.125 1.125 0 0 Z " fill="#8D8E93" transform="translate(186,165)"/>
<path d="M0 0 C2.31 0.33 4.62 0.66 7 1 C6.34 2.32 5.68 3.64 5 5 C4.67 4.01 4.34 3.02 4 2 C3.34 2 2.68 2 2 2 C1.67 2.99 1.34 3.98 1 5 C0.67 5 0.34 5 0 5 C0 3.35 0 1.7 0 0 Z " fill="#929395" transform="translate(314,166)"/>
<path d="M0 0 C0.33 0.66 0.66 1.32 1 2 C1.66 2 2.32 2 3 2 C3 1.34 3 0.68 3 0 C3.66 0 4.32 0 5 0 C5 2.31 5 4.62 5 7 C4.34 7 3.68 7 3 7 C3 5.68 3 4.36 3 3 C2.34 3 1.68 3 1 3 C0.67 3.99 0.34 4.98 0 6 C0 4.02 0 2.04 0 0 Z " fill="#97999C" transform="translate(271,164)"/>
<path d="M0 0 C0.99 0 1.98 0 3 0 C3.66 1.65 4.32 3.3 5 5 C3.02 5 1.04 5 -1 5 C-0.67 3.35 -0.34 1.7 0 0 Z " fill="#29282B" transform="translate(302,149)"/>
<path d="M0 0 C0.99 0 1.98 0 3 0 C3 1.98 3 3.96 3 6 C0.525 5.01 0.525 5.01 -2 4 C-1.34 2.68 -0.68 1.36 0 0 Z " fill="#949697" transform="translate(258,360)"/>
<path d="M0 0 C1.65 0 3.3 0 5 0 C4.67 1.32 4.34 2.64 4 4 C3.34 4 2.68 4 2 4 C1.67 4.99 1.34 5.98 1 7 C0.67 7 0.34 7 0 7 C0 4.69 0 2.38 0 0 Z " fill="#6B6B6D" transform="translate(177,322)"/>
<path d="M0 0 C1.32 0.33 2.64 0.66 4 1 C4.99 1 5.98 1 7 1 C5.68 3.31 4.36 5.62 3 8 C2.67 8 2.34 8 2 8 C1.34 5.36 0.68 2.72 0 0 Z " fill="#636466" transform="translate(210,306)"/>
<path d="M0 0 C3 1 3 1 5 2 C5 2.66 5 3.32 5 4 C4.34 4 3.68 4 3 4 C2.67 4.99 2.34 5.98 2 7 C1.34 7 0.68 7 0 7 C0 4.69 0 2.38 0 0 Z " fill="#818184" transform="translate(324,244)"/>
<path d="M0 0 C1.32 0 2.64 0 4 0 C4.33 0.33 4.66 0.66 5 1 C5.66 1 6.32 1 7 1 C7 1.99 7 2.98 7 4 C5.02 4 3.04 4 1 4 C0.67 2.68 0.34 1.36 0 0 Z " fill="#D9DBDA" transform="translate(184,233)"/>
<path d="M0 0 C0.99 0 1.98 0 3 0 C3.33 1.98 3.66 3.96 4 6 C2.68 6.33 1.36 6.66 0 7 C0 4.69 0 2.38 0 0 Z " fill="#969898" transform="translate(321,197)"/>
<path d="M0 0 C1.65 0.33 3.3 0.66 5 1 C4.67 2.32 4.34 3.64 4 5 C2.35 4.67 0.7 4.34 -1 4 C-0.67 2.68 -0.34 1.36 0 0 Z " fill="#8A8D8E" transform="translate(308,166)"/>
<path d="M0 0 C1.32 0 2.64 0 4 0 C4 2.64 4 5.28 4 8 C3.34 8 2.68 8 2 8 C2 6.02 2 4.04 2 2 C1.34 2 0.68 2 0 2 C0 1.34 0 0.68 0 0 Z " fill="#2A2B2C" transform="translate(305,379)"/>
<path d="M0 0 C0.33 1.98 0.66 3.96 1 6 C-0.65 6 -2.3 6 -4 6 C-4 4.68 -4 3.36 -4 2 C-1 0 -1 0 0 0 Z " fill="#AEAEB0" transform="translate(214,360)"/>
<path d="M0 0 C1.32 0 2.64 0 4 0 C4 1.65 4 3.3 4 5 C2.68 5 1.36 5 0 5 C0 3.35 0 1.7 0 0 Z " fill="#737374" transform="translate(184,342)"/>
<path d="M0 0 C0.33 0 0.66 0 1 0 C1 1.98 1 3.96 1 6 C-0.98 6 -2.96 6 -5 6 C-5 5.01 -5 4.02 -5 3 C-3.02 3.495 -3.02 3.495 -1 4 C-0.67 2.68 -0.34 1.36 0 0 Z " fill="#C6C7CA" transform="translate(323,245)"/>
<path d="M0 0 C2.475 0.495 2.475 0.495 5 1 C4.67 2.65 4.34 4.3 4 6 C2.68 6.33 1.36 6.66 0 7 C1 5 1 5 3 3 C2.34 2.67 1.68 2.34 1 2 C0.67 1.34 0.34 0.68 0 0 Z " fill="#828182" transform="translate(329,230)"/>
<path d="M0 0 C1.32 0 2.64 0 4 0 C4 2.31 4 4.62 4 7 C2.35 7 0.7 7 -1 7 C0.32 6.67 1.64 6.34 3 6 C2.2575 5.071875 2.2575 5.071875 1.5 4.125 C0 2 0 2 0 0 Z " fill="#7A7B7C" transform="translate(329,215)"/>
<path d="M0 0 C1.32 0 2.64 0 4 0 C4 1.98 4 3.96 4 6 C3.01 6.495 3.01 6.495 2 7 C2 6.34 2 5.68 2 5 C1.34 5 0.68 5 0 5 C0 3.35 0 1.7 0 0 Z " fill="#757176" transform="translate(323,215)"/>
<path d="M0 0 C1.67542976 0.28604898 3.34385343 0.61781233 5 1 C3.02 1.99 3.02 1.99 1 3 C1.33 4.65 1.66 6.3 2 8 C1.01 7.34 0.02 6.68 -1 6 C-1.25 3.4375 -1.25 3.4375 -1 1 C-0.67 0.67 -0.34 0.34 0 0 Z " fill="#868688" transform="translate(178,258)"/>
<path d="M0 0 C1.32 0.33 2.64 0.66 4 1 C3.67 2.32 3.34 3.64 3 5 C0.03 4.505 0.03 4.505 -3 4 C-2.01 3.67 -1.02 3.34 0 3 C0 2.01 0 1.02 0 0 Z " fill="#A9AAAA" transform="translate(202,232)"/>
<path d="M0 0 C1.65 0.33 3.3 0.66 5 1 C4.01 1.66 3.02 2.32 2 3 C2 3.99 2 4.98 2 6 C1.01 5.34 0.02 4.68 -1 4 C-0.67 2.68 -0.34 1.36 0 0 Z " fill="#212125" transform="translate(293,195)"/>
<path d="M0 0 C1.32 0 2.64 0 4 0 C4 1.65 4 3.3 4 5 C2.68 4.67 1.36 4.34 0 4 C0 2.68 0 1.36 0 0 Z " fill="#8D8C8E" transform="translate(242,166)"/>
<path d="M0 0 C1.32 0 2.64 0 4 0 C3.67 1.65 3.34 3.3 3 5 C1.68 4.67 0.36 4.34 -1 4 C-0.67 2.68 -0.34 1.36 0 0 Z " fill="#838385" transform="translate(225,166)"/>
<path d="M0 0 C0.99 0 1.98 0 3 0 C3 1.65 3 3.3 3 5 C1.68 5.33 0.36 5.66 -1 6 C-1.042721 4.33388095 -1.04063832 2.66617115 -1 1 C-0.67 0.67 -0.34 0.34 0 0 Z " fill="#686769" transform="translate(186,306)"/>
<path d="M0 0 C1.32 0 2.64 0 4 0 C3.67 1.65 3.34 3.3 3 5 C2.01 4.67 1.02 4.34 0 4 C0 2.68 0 1.36 0 0 Z " fill="#7D7D7F" transform="translate(193,289)"/>
<path d="M0 0 C0.99 0 1.98 0 3 0 C3 2.64 3 5.28 3 8 C2.34 8 1.68 8 1 8 C0.67 5.36 0.34 2.72 0 0 Z " fill="#40403E" transform="translate(299,195)"/>
<path d="M0 0 C1.32 0.33 2.64 0.66 4 1 C3.67 2.32 3.34 3.64 3 5 C0.03 4.505 0.03 4.505 -3 4 C-2.01 3.67 -1.02 3.34 0 3 C0 2.01 0 1.02 0 0 Z " fill="#989999" transform="translate(208,182)"/>
<path d="M0 0 C1.98 0.495 1.98 0.495 4 1 C3.67 2.32 3.34 3.64 3 5 C1.68 4.67 0.36 4.34 -1 4 C-0.67 2.68 -0.34 1.36 0 0 Z " fill="#7C7A79" transform="translate(194,166)"/>
<path d="M0 0 C0.33 0.99 0.66 1.98 1 3 C0.34 3.66 -0.32 4.32 -1 5 C-3.125 4.625 -3.125 4.625 -5 4 C-5 3.34 -5 2.68 -5 2 C-3.35 1.34 -1.7 0.68 0 0 Z " fill="#454546" transform="translate(297,383)"/>
<path d="M0 0 C0 1.65 0 3.3 0 5 C-1.98 5.99 -1.98 5.99 -4 7 C-3.625 4.0625 -3.625 4.0625 -3 1 C-1 0 -1 0 0 0 Z " fill="#9B9B9C" transform="translate(325,379)"/>
<path d="M0 0 C1.65 0 3.3 0 5 0 C4.01 0.33 3.02 0.66 2 1 C2 1.66 2 2.32 2 3 C2.66 3.33 3.32 3.66 4 4 C3.34 4 2.68 4 2 4 C2 4.66 2 5.32 2 6 C1.34 6 0.68 6 0 6 C0 4.02 0 2.04 0 0 Z " fill="#6F706F" transform="translate(177,230)"/>
<path d="M0 0 C0.66 0.66 1.32 1.32 2 2 C1.34 2.66 0.68 3.32 0 4 C-2.625 3.625 -2.625 3.625 -5 3 C-4 1 -4 1 -2.0625 0.25 C-1.381875 0.1675 -0.70125 0.085 0 0 Z " fill="#99999B" transform="translate(205,219)"/>
<path d="M0 0 C1.32 0 2.64 0 4 0 C4 1.98 4 3.96 4 6 C3.34 6 2.68 6 2 6 C2 5.34 2 4.68 2 4 C1.34 3.67 0.68 3.34 0 3 C0.33 2.67 0.66 2.34 1 2 C0.67 1.34 0.34 0.68 0 0 Z " fill="#413F40" transform="translate(186,197)"/>
<path d="M0 0 C0.66 0 1.32 0 2 0 C1.979375 0.78375 1.95875 1.5675 1.9375 2.375 C1.81315937 4.98114961 1.81315937 4.98114961 3 7 C2.34 7 1.68 7 1 7 C0.67 7.66 0.34 8.32 0 9 C-1.10844919 5.67465243 -0.84454356 3.37817425 0 0 Z " fill="#D0D0D3" transform="translate(318,180)"/>
</svg>
